<?xml version="1.0" encoding="UTF-8"?>
<svg id="_Слой_1" data-name="Слой 1" xmlns="http://www.w3.org/2000/svg" viewBox="0 0 30 95.17">
  <path d="M26.16,45.72l-.02,3.42-.03,4.09-.02,7.46-.02,3.4-.03,2.18c0,.06,0,.25-.06.26l-.35.07c-.02.12-.01.39.01.6,2.78,1.06,4.52,3.79,4.32,6.75s-2.21,5.35-5.07,6.05l-.04,1.06.29.18-.95,7.76c-.05.44.05.86.03,1.28-.02.64-.16,1.27-.13,1.91,0,.22.12.52.11.75l-.04.8-.5.1c-.05.26-.09.59-.23.78-.18.25-.53.04-.67-.11-.78-.84-.91.71-3.67.65-.32,0-.86-.03-.95-.43-.08-.34-.06-.7-.09-1.09l-1.06.02c-.21,0-.46-.17-.62-.27l-3.09-.28c0,.16-.01.35-.08.41-.17.16-1.56-.69-3.22-.36-.39.08-.55.03-.82-.25-.53-.53-1.06-1.04-1.58-1.61-1.7-1.91-3.41-4.1-4.77-6.29l-.19.19c-.05.05-.16.12-.22.14-.66.18-1.18-4.83-1.2-5.36l-.81-.03c-.16,0-.37-.15-.38-.33-.09-1.26.19-2.47.89-3.53l-.38-9.71c-.14-3.62-.18-7.17-.11-10.8.06-3.13.3-6.18.63-9.27.2-1.85.62-3.59,1.26-5.32.13-.35,3.31-6.6,3.65-7.15l4.04-6.67c.12-.58-.23-1.17-.16-1.71l.44-3.4c.4-3.12.68-6.2,1.19-9.32.45-2.79,1.4-8.07,3.02-10.3.66-.91,1.68-1.49,2.72-1.87C19.03-.09,19.67-.05,21.67.07c.08,0,.21.19.21.27v.88s1.83.17,1.83.17l.23-.67c.02-.06.13-.19.19-.19.32-.01,1.01.4.91,1.16-.07.51.39.16.47,1.89.04.91-.06,1.8.04,2.69.07.58.23,1.14.24,1.73l.04,1.95-.28.17.02.85c2.62.97,4.34,3.43,4.4,6.17s-1.56,5.3-4.14,6.4l.09,1.21.29.09c.08.03.12.23.12.34l-.05,5.82-.05,6.52-.02,1.91-.05,6.3ZM1.18,77.84l-.1-1.21c-.54.9-.7,1.88-.67,2.91l.89.04-.07-.89-.06-.85ZM1.66,72.92l-.07-1.94-.07-2.5-.07-3.14v-8.2s.05-3.28.05-3.28l.03-.64.04-1.35.07-1.09.07-1.15.07-.87c.17-2.04.52-4.68,1.27-6.61l-.38-.9c-.61,1.62-1,3.24-1.19,4.98-.37,3.24-.66,6.44-.66,9.71v5.64s.1,4.42.1,4.42l.39,10.27c-.06.14-.13.36-.12.51l.08.96.07.89c.02.32,0,.7.12.97.07.16.16.29.18.45.13,1.55.31,3.32.8,4.71.22-.21.33-.3.57-.37-.42-1.25-.68-2.53-.8-3.83l-.29-3.1-.07-.87-.06-.95-.06-1.12-.07-1.6ZM2.87,74.86l-.06-.78-.07-.95-.06-.82-.07-.95-.08-1.29-.06-.89-.07-1.22-.08-1.83-.03-2.04c0-.36-.04-.68-.04-1.05l.02-8.76.08-2.78.06-1.44.07-1.03c.13-1.93.43-3.83,1.03-5.67.97-2.96,3.39-6.69,5.25-9.2l1.74-2.35c.1-.34.04-.81,0-1.13l-.92,1.31c-1.74,2.48-3.55,4.9-4.94,7.6l-1.21,2.34c-.09.18-.32.33-.39.55-.42,1.32-.74,2.62-.89,3.99l-.26,2.28-.07.95-.07,1.02-.05,1.08-.04.82-.06,2.34-.07,6.44c0,.56-.01,1.08,0,1.64l.07,3.94.07,2.84.06,2.19.07,1.82.05,1.27.07,1.09.06.88.07.82.07.81.05.62c.06.65.12,1.31.24,1.95.08.4.49.66.48,1.13l-.39-.59c.09.9.28,1.64.59,2.45l.55-.62c-.27-.46-.58-.78-.72-1.28.81,1.23,1.6,2.38,2.55,3.5s1.86,2.14,2.93,3.1c1.4,1.25,1.27.92,3.17.95l-.05-1.23v-18.46s-1.76.94-1.76.94v5.1s-.04,1.62-.04,1.62l-.04,5.52c0,.22-.01.51-.03.71-.34.75-1.15,1.8-2.08,1.19-1.09-.71-1.93-1.67-2.71-2.7-.64-.86-1.11-1.74-1.36-2.79s-.4-2.12-.5-3.22l-.07-.79-.07-.92ZM6.92,84.06c-1.18-1.06-2.31-2.46-2.77-4.02-.36-1.23-.54-2.46-.66-3.74l-.08-.87-.07-.81-.06-.75-.07-.82-.07-.95-.06-.75-.09-1.28-.05-.82-.07-1.28-.07-2.72-.05-2.49-.04-9.06c-.09-.05-.32.04-.32.13l-.04,2.62c-.03,1.57-.02,3.11,0,4.69l.06,4.34.07,2.1.05,1.06.07,1.15.07,1.09.07,1.01.07.88.07.95.06.75.07.81.07.87c.15,1.73.34,3.67,1.16,5.21.19.36.43.7.67,1.03.75,1.05,1.57,1.97,2.65,2.71.25.17.61.34.9.19.44-.23,1.31-1.09,1.09-1.61l-.81.76c-.6.57-1.25.1-1.81-.41ZM9.24,34.4c.64-.77,1.16-1.53,1.73-2.32.08-.11.05-.45.04-.59-.26.22-.44.4-.62.65-1.2,1.62-2.42,3.19-3.49,4.9l-.67,1.05c-2.38,3.77-3.44,6.86-3.69,11.36l-.07,1.23-.05,2c0,.31-.04.6-.01.92.13-.01.22-.02.28-.06s.05-.23.06-.31l.06-1.84.07-1.22.06-.75.13-1.29.27-1.91c.52-3.73,2.69-7.05,4.75-10.11.11-1.49.84-1.32,1.17-1.71ZM8.63,54.77l.22-1.12s-.22-.03-.23.03l-.05.27-.25.8c-.14.44-.32.68-.79.74-.94.12-2.8.04-2.73-1.33l-2,.27.02,5.9.06,4.34.05,1.25,6.88-.91c.05-.27.09-.55.09-.84,0-.69.01-1.34.03-2.02l.07-2.63.06-2.25.05-2.21c-.43.16-.86.26-1.29.21-.07-.09-.23-.37-.2-.49ZM10.22,51.86l-7.37,1.75c-.03.25-.03.44-.02.7l7.34-1,.05-1.45ZM3.39,41.71l-.51-.9c-.12.15-.13.34-.06.49l.32.73c.09-.02.3-.23.25-.32ZM10.23,50.29l-7.39,2.37.04.85,7.35-1.75v-1.47ZM10.85,36.1l-.41,1.08c-.43.3-1.86.08-2.26-.13l-.14-.67c-1.49,2.13-3.3,5.03-4.07,7.51-.49,1.59-.75,3.21-.89,4.87l-.08,1-.06.83-.05,1.07c-.01.32-.05.61-.03.88l7.41-2.38.07-1.51.06-1.64.07-1.7.08-1.81.05-1.54.04-.68.05-1.42-2.59-1.13c-.24-.1-.28-.38-.22-.6.04-.15.33-.34.53-.26l1.71.73.65-.79.07-1.7ZM9.73,68.95l.07-1.85c.02-.51.04-1,.04-1.54l-6.91.92.04.8.03,1.39c1.16.11,2.28.75,3.46.76.36,0,2.13-.49,2.74.68l.53-1.16ZM2.87,65.99l.06.44,6.96-.92-.06-.44-6.96.92ZM9.68,71.01v-.57s-6.67-1.68-6.67-1.68l.05.7,5.96,1.47c.23.06.41.09.65.08ZM10.48,30.5c.06-.21.08-.39.06-.56l-.32-2.3-3.79,6.23c-1.33,2.19-2.32,4.49-3.46,6.79.14.37.3.67.49.94l.98-1.87c.35-.67.74-1.26,1.15-1.91,1.55-2.5,3.19-4.89,4.89-7.33ZM9.18,89.68c-.31-.2-.48-.34-.71-.54-1.79-1.64-3.35-3.45-4.76-5.42l-.68.77c.39.68.77,1.31,1.23,1.95,1.19,1.68,2.45,3.26,3.83,4.78.34.38.64.69,1.04,1.03l.05-2.58ZM9.69,71.16c-.31-.05-.47-.07-.69-.13l-5.93-1.47c-.01.29.02.58.06.9l6.56,2.08v-1.39ZM7.49,84.37c.39.31.87.33,1.26-.05l.82-.81.03-2.14.07-7.32c0-.48.04-.92.03-1.39l-6.57-2.08.08,1.2.06.88.05.68.31,3.42c.1,1.16.3,2.26.64,3.37.43,1.41,1.38,2.49,2.35,3.54.25.27.57.47.86.7ZM8.45,53.65l-3.47.47c-.13.42.08.79.45,1,.43.24.92.29,1.42.28.53,0,1.15.02,1.31-.52.14-.49.4-1.03.29-1.24ZM6.68,69.57l2.35.59c-.02-.77-1.95-.86-2.35-.59ZM10.71,38.97l-2.33-1.01c-.11-.05-.33.1-.39.2s-.01.38.11.44l2.61,1.14v-.77ZM10.35,37.01c-.13-.36-.24-.59-.37-.87l-.75.07c-.37.03-.71.12-1.05-.08l.02.62c.02.52,1.23.47,1.69.48.13,0,.5-.1.45-.21ZM10.24,34.75c-.25-.42-.81-.27-1.12-.11-.46.22-.83.54-.87,1.08,0,.12.07.39.17.42s1.47-.02,1.65-.17c.09-.36.22-.89.17-1.22ZM10.17,53.43l-1.18.15-.26,1.08c-.03.12.04.38.13.46.08.07.31.1.41.07l.87-.26.04-1.5ZM9.77,89.98l-.46-.16-.04,1.42-.04,1.12.42.46c.05-.19.12-.39.12-.53v-2.3ZM9.71,69.34c-.19.28-.32.52-.44.86.14.06.31.1.43.1v-.97ZM10.89,34.92l.05-1.33c.02-.43.09-.85.01-1.28l-1.53,2.09c.42-.14.58-.42.92-.14.21.18.41.44.54.66ZM11.59,89.97h-1.68c0,.6,0,1.16-.03,1.73l-.07,1.07c1.06-.18,1.97-.02,3,.26.1-.13.21-.38.24-.6-1.12-.4-1.44-1.36-1.45-2.45ZM10.32,51.89l-.06,1.82-.06,2.26-.06,2.46-.07,2.5-.06,2.39-.05,1.66-.06,2.72-.05.68-.04,2.61,1.71-.92c0-.66.03-1.23.04-1.86l.06-2.86.07-2.91.06-2.73.08-2.7.06-2.65.06-2.27c0-.29.04-.53.01-.84-.62.2-1.1.4-1.65.65ZM10.15,34.23c-.15.03-.24.05-.36.1l.8.36-.44-.46ZM10.41,34.77l-.29,1.41.32.67c.33-.71.65-1.6-.03-2.08ZM10.74,38.05l-.52.6.51.21c.03-.32.04-.5,0-.82ZM12.03,18.97l.36-3.46c.31-2.96,1.01-7.42,2.01-10.2.65-1.82,1.29-1.59.89-2.59l-.16-.4c-1.89,1.93-3.21,9.68-3.53,12.4l-.95,7.93-.37,2.81c-.05.4.2.91.17,1.32l-.06.73c-.06.73.16,1.45.24,2.16.89-1.65.81-1.14.86-3.06l.06-.96.08-1.35.06-.88.08-1.15.06-.81.07-.88.06-.75.07-.84ZM12.75,30.05c-.25.11-.46.22-.64.39l-.97.89-.39,9.63-.06,1.55-.04,1.02-.04,1.02-.07,1.65-.06,1.52-.07,1.63-.06,1.72-.03.69,1.66-.63.05-1.17.06-1.78.07-1.75.06-1.91.07-1.77.07-1.95.06-1.71.07-1.89.06-1.91.07-1.82.06-1.91c.02-.5.04-.94.03-1.48ZM13.42,18.36l.06-.66.08-.94.21-2.11.36-2.87c0-.05.05-.19.01-.18-.03,0-.11,0-.13.02l-.09.08-.5,4.24-.2,2.11-.51,5.59c-.18,2.02-.49,3.15-1.4,4.99-.2.39-.54.81-.63,1.24-.1.59-.03,1.19-.02,1.76l1.33-1.24c.22-.2.56-.38.79-.51-.01-.29,0-.61,0-.9l.05-1.75.04-.82.05-1.01.07-1.36.07-1.15.07-1.02.07-.88.07-.95.07-.88.07-.78ZM12.31,17.03l-.29,3-.07.87-.07.88-.06.88-.07,1.08-.07,1.22-.06,1.02-.06,1.03-.02.85c.71-1.38.97-2.9,1.11-4.5l.58-6.41.61-5.5c.07-.65.18-1.25.28-1.89.28-1.79.71-3.48,1.35-5.18.07-.19-.03-.55-.07-.76-.99,1.21-1.64,4.01-1.95,5.55-.52,2.6-.88,5.17-1.14,7.84ZM22.59,50.82l-.99-.08-1.19-.06c.2-.03.44-.08.61-.07l.82.05.73.05.05-1.26.06-4.01.04-3.53.03-1.21.03-3.89.04-1.11.04-4.81c0-.27.06-.57.1-.83.02,1.15,0,2.24-.02,3.38l-.07,4.94-.07,4.83-.07,4.34-.06,3.16.83.07.04-2.49.06-5.44.07-6.57.04-6.15c-.62-.11-1.22-.21-1.83-.27l-1.99-.18c-1.94-.18-5.14-.18-7.05.29-.05.67-.02,1.22-.06,1.86l-.04.75-.05,1.73-.07,1.89-.07,1.71-.07,2.02-.07,1.78-.07,1.82-.06,1.85-.07,1.82-.06,1.66-.04.75-.03,1.47c1.45-.43,2.87-.61,4.32-.69.87-.05,1.27-.06,2.15.09l-2.7.05c-1.3.02-2.54.3-3.79.67l-.07,1.85-.06,2.52-.07,2.7-.06,2.86-.07,2.77-.06,2.8-.06,3.28.9-.49c2.58-1.4,5.09-2.84,7.59-4.39.67-.42,1.23-.88,1.94-1.22-1,.79-2.04,1.42-3.12,2.06l-2.89,1.72-4.41,2.45c-.03.39-.05.75-.05,1.18l.04,12.31.04,5.63c.33-.6.78-1.07,1.34-1.53l2.51-2.06c0,1.08.03,2.04-.03,3.06-.05.95-.04,1.85-.03,2.82,0,.31-.02.74-.11,1.03-.03.1-.33.17-.43.16l-1.7-.28c-.08-.01-.11.22-.02.24,1.03.13,2.25.24,3.32.3l.4.28h1.31c.11,0,.25.2.25.31l.06,1.06c.31.29,1.85.08,2.27-.1l.02-.62.06-1.43.06-.74.07-.75.07-.95.06-.82.08-1.01.05-.69.08-1.02.07-.88.07-.88.06-.82.08-1.13.08-1.12c-1.47-.37-2.64-1.21-3.74-2.16l-.08,1.18-.06,1.71-.07,1.62-.06,1.52-.05,1.04-.08,1.9-.04.95-.05,1.02-.05,1.33c-.02.38,0,.72-.12,1.1l.02-1.07.05-.95.06-1.44.06-1.5.06-1.27.04-1.02.04-.95.07-1.44.06-1.51.05-1.34c.01-.32.08-.73,0-1.02-1.61-1.51-2.33-3.22-2.5-5.39-.13-1.65.26-3.29,1.16-4.7.74-1.16,1.77-2.05,2.95-2.73.88-.51,1.83-.77,2.83-.96l.04-1.13.03-.68-.38.14.39-.38.04-2.59.07-4.29.07-4.13c0-.57.04-1.09.04-1.69ZM13.06,90.72c.03-.98.03-1.89.03-2.89-.84.66-1.52,1.32-1.4,2.44.1.89.43,1.69,1.32,2.01l.05-1.57ZM16.28,8.13c-.62.81-.53,1.69-1.13,2.76-.17.3-.57.44-.85.62-.12.68-.24,1.32-.31,2l-.37,3.59-.08.87-.06.75-.07.82-.07.88-.07.95-.06.96-.07,1.09-.07,1.15-.05,1.01-.04.82-.06,1.65c-.02.59-.03,1.2-.04,1.8.73-.15,1.41-.26,2.14-.3l1.29-.07c.59-.03,1.19-.04,1.79,0l.75.04.81.05,1.01.08,2.24.25v-3.82c.02-.21.14-.47.03-.63-2.86-.36-5.09-1.57-6.66-3.95-.64-.97-.97-2.03-1.07-3.21-.2-2.39.5-4.72,2.14-6.47l-.02-2.8c0-.42-.12-1.36-.4-1.76l-.66.87ZM14.57,86.55l-1.38,1.19-.02.86-.02,3.71c.5.11.93.18,1.43.24l.02-5.21c0-.26.13-.53-.02-.79ZM15.51,4.66c-.87,2.23-1.23,4.48-1.57,6.79.11,0,.27-.09.28-.15l.95-4.48c.16-.75.32-1.43.34-2.17ZM17.36,6.34c-.7.23-1.29.37-2.05.3l-.47,2.11c-.19.85-.35,1.64-.48,2.53.35-.11.64-.3.78-.62.29-.64.44-1.3.69-1.96s1.19-1.58,1.54-2.35ZM15.46,85.85l-.74.59-.03,4.3c0,.62-.05,1.22,0,1.81.14.08.6.08.61-.1l.07-1.98.05-3.56c0-.36.06-.64.04-1.06ZM23.77,25.08c-1.26-.15-2.42-.44-3.57-.92-2.3-.97-4.13-3.26-4.44-5.74-.17-1.4.03-2.78.5-4.1.54-1.51,1.27-1.64,1.05-2.28-1.48,1.54-2.22,4.01-2.02,6.14.09.88.25,1.72.64,2.5.94,1.86,2.46,3.26,4.39,4.02,1.08.43,2.16.58,3.34.77-.2.05-.41.04-.63,0v4.23c0,.07-.1.19-.07.19l.14.02,2.75.41.04-5.15-2.02-.11-.08,4.97c-.24-1.63.08-3.39-.04-4.98ZM18.76.53c-1.41.38-2.49.75-3.51,1.69.02.23.1.44.22.65.99-.37,1.8-.91,2.58-1.58.27-.23.58-.39.71-.76ZM17.64,5.61c-.8-.11-1.44-.1-2.11.24-.1.17-.17.47-.17.69.75.11,1.43-.11,2.12-.4.07-.14.13-.34.16-.52ZM15.87,73.28c.05-2.05.93-3.94,2.45-5.24,1.13-.96,2.48-1.49,3.91-1.78.09-.16.1-.41.02-.56-3.43.53-6.41,3.24-6.76,6.76-.18,1.79.17,3.83,1.19,5.34.91,1.34,2.15,2.37,3.56,3.15,1.29.72,2.95.9,4.44.93v-.33c-1.56-.06-3.08-.3-4.47-1.03-1.78-.94-3.1-2.5-3.87-4.34-.38-.92-.49-1.85-.47-2.91ZM17.67,4.99c-.73-.16-1.46-.09-2.07.2l-.11.58c.73-.37,1.43-.39,2.15-.27.12-.04.16-.48.03-.51ZM16.15,2.78l-.65.2.05.37.59-.56ZM17.48,10.34l.02,1.33,1.21-1.04.02-7.71c0-.49.12-.91,0-1.42-1.26.33-2.2,1.14-3.19,1.98-.02.22.01.51.08.75.44-.48,1.24-1.09,1.94-1.36l.09,1.13c.02.32.18.68.19,1.01.02.8-.36,1.5-.8,2.14.32.7.44,1.42.39,2.21-.02.31.05.64.05.98ZM17.26,3.14c-.69.37-1.92,1.09-1.62,1.9.35-.12.65-.18,1.1-.23l.53-1.66ZM25.43,10.91c.03-.34.03-.57,0-.85-3.35-.17-7.22.85-8.66,4.14-.42.97-.6,1.97-.65,3.02-.08,1.7.53,3.29,1.62,4.58.73.86,1.56,1.52,2.61,1.96,1.34.57,2.74.88,4.19.94l1.27.06-.09-1.18c-2.86,1.11-6.02.2-7.83-2.16s-1.87-5.66-.12-8.08,4.79-3.38,7.66-2.44ZM25.5,67.14c.02-.25.02-.4,0-.58-2.83-.26-6.07.43-7.85,2.8-1.45,1.94-1.81,4.56-.87,6.79.74,1.75,2,3.17,3.67,4.04,1.34.7,2.79.91,4.3.96.06-.41.07-.75.03-1.12-2.85.63-5.66-.59-7.16-2.96s-1.35-5.58.44-7.8,4.7-3.06,7.43-2.14ZM23.24,10.83c-3.57,0-6.46,2.9-6.46,6.47s2.89,6.47,6.46,6.47,6.46-2.9,6.46-6.47-2.89-6.47-6.46-6.47ZM23.3,67.05c-3.55,0-6.43,2.88-6.43,6.44s2.88,6.44,6.43,6.44,6.43-2.88,6.43-6.44-2.88-6.44-6.43-6.44ZM17.48,3.05c-.11,0-.2.03-.19.08,0,.03.03.19.01.23l-.43,1.42.84.07c-.15-.65-.22-1.2-.24-1.8ZM23.1,9.34c-2.3.3-4,.8-5.57,2.48-.03.11-.03.34-.02.46,1.52-1.58,3.46-2.3,5.63-2.57.12-.01.12-.39-.04-.37ZM21.46.47c-.89-.07-1.67-.06-2.5.02-.28.47-.65.76-1.06,1.12.79-.25,1.53-.36,2.33-.45l1.24-.03V.47ZM21.62,2.7c.05-.76.06-.78-.17-1.47-.31-.02-.64,0-.96.02l-.7.06c-.31.03-.6.08-.93.16v7.37s-.01,1.7-.01,1.7c.9-.53,1.82-.91,2.83-1.08l1.57-.27.06-2.73.06-1.59.16-.87c-.47.19-.91.35-1.39.21-.55-.15-.54-1.06-.51-1.53ZM21.65,84.22l-.07.92-.07.88-.07.88-.07.88-.07.95-.07.88-.07.82-.07.88-.06.68-.07.95c-.04.51-.02.97-.01,1.52l.87-.47.11-1.35c.04-.5.2-.94.36-1.41l1.29-3.8c.88-2.59.77-2.62,1.09-5.4-.7-.15-.89-.04-1.68-.16l-1.14-.18-.07.73-.07.95-.06.85ZM23.66,3.31h-1.97c.06.34.13.6.28.72.41.34,1.15.08,1.56-.18.12-.07.14-.42.13-.55ZM22.83,1.72l-1.11-.09-.03,1.62,1.15-.05v-1.49ZM23.29,93.62l.49-3.41c.05-.36-.02-.76.02-1.13l.34-2.94-1.67,4.92c-.31.92-.55,1.84-.48,2.83.24-.04.5-.04.74-.02l-.44-.32c.41.04.59.3.89.53.36-.25-.38-.84-.76-.86-.05,0-.17.1-.16.15l.05.21c-.11-.03-.19-.2-.15-.29.18-.43.85.05,1.14.31ZM24.52,65.5l-1.05.06c-.37.02-.68.06-1.06.11v.56c1.11-.16,2.1-.18,3.24-.09v-.71s-1.13.06-1.13.06ZM23.84,32.99l-.07,6.7-.07,6.04-.06,4.41-.08,2.03-.06,2.52-.07,2.7-.06,2.66-.07,1.5c-.04.81-.3,1.48-.83,2.07l-.05,1.93,1.11-.09.88-.06,1.25-.07.02-2.51.02-3.77.02-7.6.04-6.99.02-3.88.08-10.13-1.99-.3-.04,2.83ZM22.66,50.91l-.04,3.57-.04,3.34-.04,1.18-.04,3.92c0,.17,0,.32,0,.46.57-.59.71-1.34.73-2.11l.08-2.57.06-2.59.07-2.65.06-2.52c-.22-.09-.56-.13-.83-.03ZM23.88,1.83l-.95-.09v1.46s.78,0,.78,0l.16-1.37ZM24.39,9.25l-.8.06c-.13,0-.28.06-.27.14,0,.12.05.24.12.24l1.94-.06c.05-.06.05-.32.01-.41l-1,.04ZM24.59,1.48c0-.22-.13-.39-.33-.44-.09.28-.22.55-.26.82l-.27,1.79c-.08.53-.3,1.04-.31,1.59l-.05,2.53c-.01.48-.04.97-.03,1.45l1.34-.08.74-.06c0-.84-.12-2.41-.41-3.11-.11-.26-.38-.51-.38-.85l-.04-3.63ZM23.76,92.58l-.13-.65-.19,1.45c.09.01.29,0,.36-.02.01-.26.01-.57-.03-.78ZM24.7,2.35c.05.77-.23,3.03.38,3.46-.02-.47.2-3.63-.38-3.46Z"/>
  <path d="M13.15,45.89c.36-1.02,1.64,1.8,1.05,2.81l-.31.54s-.23,1.24-.68,1.06c-.37-.15-.37-.75-.44-1.09-.34-.34-.46-.73-.44-1.22.03-.63-.06-1.34.66-1.65l.16-.45ZM12.94,47.08l.06-.6c-.69-.03-.82,2.25-.22,2.54l.08-1.09.07-.84ZM13.73,49.42h-.83s.11.5.11.5c.02.08.13.21.2.25.27.15.5-.43.52-.75ZM13.47,45.81c-.07-.01-.26.08-.27.15-.1.51-.19,1.09-.21,1.6l-.09,1.72h.83c.13-.22-.12-.4-.14-.57-.05-.56-.06-1.15,0-1.71,0-.03.26-1.13-.12-1.18ZM13.86,46.5c-.24.52-.4,2.13.04,2.5.12-.13.26-.38.27-.6.03-.64.13-1.55-.31-1.9Z"/>
  <path d="M12.83,68.53c-.47.01-.43-1-.59-1.27.24-.21.14-.8.19-1.31l.12-1.22c-.53.11-.57.95-.56,1.4-.02.39.09.71.21,1.13-.52-.34-.49-2.52.36-2.68l.11-.38c.03-.09.16-.23.25-.25s.33.07.33.17c.03.3.19.51.38.72.26.29.19.78.2,1.15.04,1.48-.35.97-.48,1.84-.04.26-.18.69-.52.7ZM13.28,67.63h-.79c-.02.28.07.8.37.78.3-.03.39-.5.42-.78ZM13.16,64.17c-.02-.06-.16-.16-.21-.13-.29.19-.32.9-.35,1.32l-.06.77c-.04.48-.05.91-.05,1.4h.82c0-.2-.05-.34-.11-.54-.22-.75-.11-1.54.1-2.29l-.14-.53ZM13.41,64.71c-.07.21-.17.43-.17.55l-.02,1.49c0,.17.14.38.27.48.39-.56.4-2.14-.09-2.52Z"/>
  <g>
    <path d="M16.7,24.69l-.06,1.3c-.01.28-.07,1.05-.39,1.04-.28,0-.16-1.35-.15-1.63l.06-.93.54.22ZM16.62,24.75l-.4-.13-.02,1.97c0,.12-.02.32.08.34.32-.41.26-.89.29-1.34l.05-.84Z"/>
    <path d="M18.61,3.14c.15.86-.05.88-.71,1.34-.31-.53.23-1.05.71-1.34ZM17.93,4.28c.44-.12.76-.47.62-.97-.24.16-.78.58-.62.97Z"/>
    <g>
      <path d="M23.24,12.85c2.46,0,4.45,2,4.45,4.46s-1.99,4.46-4.45,4.46-4.45-2-4.45-4.46,1.99-4.46,4.45-4.46ZM27.22,15.49c-.29-.55-.63-1.02-1.06-1.45-.59.64-1.23,1.2-2.01,1.63-.25.14-.54.05-.67-.23-.37-.78-.55-1.61-.64-2.49-.61.08-1.22.27-1.73.55.45.8.77,1.58.94,2.44.18.91-1.97.58-2.46.51-.21-.03-.37-.06-.55-.15l.81.05c.25-.88.78-1.59,1.51-2.09l-.31-.7c-1.15.67-2,1.88-2.12,3.27-.01.12-.06,1.41.1,1.35.89-.18,1.76-.26,2.63-.16,1.03.12-.34,2.52-.58,3.05.51.33,1.12.51,1.75.58.1-.93.26-1.77.64-2.57.42-1.03,2.34,1.02,2.71,1.46,1.38-1.29,1.83-3.26,1.06-4.95l-.65.37c.3.86.29,1.71,0,2.58l.63.44c-.4-.07-2.6-1.32-2.33-1.82.06-.1.15-.24.24-.36.63-.53,1.3-.9,2.09-1.3ZM20.8,19.77c-.47-.43-.77-.92-.95-1.6l-.85.1c.28,1.17.94,2.1,1.97,2.74l.37-.75-.54-.5ZM21.84,18.24c-.43-.27-.92-.19-1.35-.13l-.52.06c.21.82.69,1.46,1.42,1.96.19-.42.77-1.54.46-1.89ZM21.38,14.39c-.73.43-1.21,1.14-1.42,1.97.61.08,1.13.08,1.71.03.63-.06-.09-1.66-.29-2ZM25.51,20c-.78.59-1.52.81-2.44.79l-.16.84c1.16.12,2.27-.27,3.21-1.03l-.6-.6ZM26.04,13.95c-.98-.76-2.02-1.09-3.14-.98l.16.72c.91,0,1.7.22,2.43.79.24-.16.45-.35.55-.54ZM24.12,18.92c-.28-.11-.47,0-.58.24-.21.49-.35,1-.43,1.54.87.03,1.62-.2,2.3-.75-.39-.4-.79-.74-1.28-1.03ZM25.41,14.58c-.7-.59-1.44-.77-2.31-.76.11.54.23,1.01.39,1.48.17.25.34.38.65.3.45-.29.87-.61,1.28-1.02ZM26.45,16.04l-1.23.79c-.09.13-.2.27-.22.37-.07.43,1.1,1.08,1.47,1.25.32-.82.35-1.63-.02-2.41Z"/>
      <path d="M22.53,17.41c-.07-.39.2-.78.56-.85.42-.07.81.15.89.59.07.35-.18.76-.6.85-.36.08-.78-.18-.86-.6ZM22.67,17.49c.12.36.53.53.84.37s.45-.49.33-.83c-.1-.28-.5-.46-.76-.36-.35.13-.53.46-.41.82Z"/>
    </g>
  </g>
  <g>
    <path d="M23.3,69.04c2.46,0,4.45,2,4.45,4.46s-1.99,4.46-4.45,4.46-4.45-2-4.45-4.46,1.99-4.46,4.45-4.46ZM27.26,71.68c-.26-.56-.6-1.02-1.05-1.4-.37.38-1.93,1.91-2.46,1.59-.4-.24-.78-2.19-.87-2.71-.61.04-1.13.25-1.69.51.28.56,1.02,1.96.91,2.68-.05.32-.47.36-.72.36-.77,0-1.47.02-2.23-.21.29-.05.54.05.79.05.24-.94.8-1.61,1.52-2.11l-.32-.72c-1.58.92-2.47,2.79-2.07,4.62l1.36-.16c.54-.07,1.13-.12,1.63.17.35.54-.64,2.38-.89,2.94.57.26,1.11.48,1.74.53.09-.62.39-2.63.99-2.86.46-.18,1.98,1.28,2.36,1.7.47-.39.81-.89,1.05-1.46-.54-.28-2.32-1.19-2.35-1.8.27-.66,1.68-1.36,2.32-1.73ZM19.92,74.34l-.85.13c.25,1.19,1,2.15,1.97,2.75l.4-.77c-.75-.52-1.3-1.2-1.53-2.11ZM20.04,74.34c.24.86.7,1.52,1.43,1.98.23-.38.68-1.53.53-1.8-.21-.38-1.46-.22-1.96-.18ZM22.04,72.25c-.1-.62-.3-1.14-.58-1.68-.72.5-1.19,1.13-1.43,1.97.34.1,2.1.27,2.01-.29ZM25.57,76.21c-.77.59-1.55.82-2.44.79l-.16.89c1.2.02,2.29-.32,3.21-1.12l-.62-.56ZM26.14,70.19c-.94-.76-1.96-1.11-3.11-1.04.03.27.06.5.12.76.94-.06,1.71.26,2.47.78l.52-.51ZM23.72,75.2c-.31.55-.45,1.11-.54,1.69.88,0,1.68-.19,2.32-.78-.32-.26-1.49-1.41-1.78-.9ZM25.49,70.78c-.65-.54-1.44-.81-2.31-.77.08.58.22,1.12.48,1.63.32.65,1.5-.56,1.83-.85ZM26.55,74.67c.35-.86.32-1.68,0-2.46-.6.32-1.11.65-1.51,1.16.04.2.2.39.34.56.37.26.72.49,1.17.74ZM27.32,71.8l-.69.34c.34.84.33,1.72.02,2.6l.71.39c.4-1.38.42-1.94-.04-3.33Z"/>
    <path d="M23.94,73.24c.06.31,0,.6-.25.75-.2.12-.54.15-.73-.04-.18-.17-.29-.44-.19-.72.09-.25.35-.43.6-.44.23,0,.53.21.57.44ZM23.71,73.83c.21-.22.2-.51.06-.7-.13-.18-.43-.28-.63-.17-.22.12-.35.36-.27.64.04.16.2.34.33.39.15.05.39-.03.52-.16Z"/>
  </g>
</svg>