<?xml version="1.0" encoding="UTF-8"?>
<svg id="_Слой_1" data-name="Слой 1" xmlns="http://www.w3.org/2000/svg" viewBox="0 0 33.45 99.91">
  <path d="M19.97,60.32l.1,2.7.11,2.73.09,2.47c.02.52.21,1.1-.41,1.37l-.58-14.94-.04-1.48c.08-.05.41.06.42.18.02.28.06.68.1.97l.11-1.04c1.08-.64,1.03-1.63.94-2.68s-.35-1.98-1.28-2.58c-.08-.38-.12-.82-.13-1.21l-.07-1.7-.13-2.96-.08-1.37-.09-1.64-.1-2.55-.11-2.41-.09-1.87-.05-1.62,1.2.07,1.54,1.42c-.46-.67-1.01-1.11-1.52-1.64l-.45-5.02c-.06-.67-.15-3.03-1.09-3.01-.34-.06-2.31,2.91-2.14,3.27l1.32-2.1c.24-.38.49-.81.95-1,.17-.07.49.41.41.57l-.63,1.11c-.08-.27-.16-.54-.38-.75l.37,2.57.14,1.25c.05.45.04.87.04,1.33,0,.89.29,1.82-.16,1.65-.2-.07,0-1.24-.22-1.43l-.05,1.4-1.91-.14-.19-3.87c-.06-1.12.76-1.3.22-2.42-.42-.87-1.72-.59-1.11-1.24,3.63-3.87,3.77-9.79-.1-13.51.27-.86.61-1.6.67-2.5l-.8,2.32c-.99-.8-2.01-1.45-3.17-2.01l1.23-.17.96-1.64c.11-.18.16-.55.11-.77l-.48-1.87.86.67c.02-.48-.06-.85-.17-1.34.19.1.63-.41.47-.59-.62-.39-1.14-.66-1.89-.99l.48,1.48c.07.22-.01.58-.24.69-.37.18-.75.29-1.13.29h-.9s.74-.14.74-.14c-.21-.58-.39-1.2-1.01-1.59l.16,1.67-1.49.11-1.33.13-1.24.12c-.18.02-.67.13-.73-.04-.17-.45-.23-.99-.19-1.46.02-.2.66-.28.76-.1.24.46.27,1.1.67,1.48l-.57-1.69-.9-.1c.08-.29.23-.62.43-.88,1.2.1,2.34.08,3.54-.02l3.29-.29c.33.2.77.6,1.16.63,1.75.11,2.91-.84,4.32,1.73,2.02,3.7,3.12,8.7,3.67,12.96.16,1.27,1.38,12.41.99,12.61-.03.02-.12.08-.12.04v-.3c-.02-.29-.04-.55-.07-.84l-.48-5.47c-.45-5.15-1.09-10.57-2.79-15.45-.38-1.09-.71-2.16-1.36-3.1l-.84-1.2c-.04-.06-.32-.15-.34-.08s-.01.15.03.28l1.03,3.26c.02.06.1.21.14.25.09.12.24-.06.7-.08.42-.02,1.15,3.13,1.26,3.64.87,3.86,1.39,7.66,1.71,11.62l.75,9.29c.06.71-.02,1.38.15,2.07.14.59-.12,1.11-.13,1.76l.35-1.46c.47.79.93,1.5,1.41,2.27l3.24,5.11c1.02,1.6,1.84,3.21,2.69,4.93.19-.23.17-.56.01-.89-2.09-4.35-4.46-8.49-7.04-12.57-.12-.18-.3-.39-.43-.54-.13-.79.06-1.23-.02-2.29.53.55.54,1.25.19,1.8l3.69,6.12c1.57,2.6,2.93,5.22,4.15,8,.83,1.89,1.1,3.85,1.44,5.87.41,2.43.68,4.71.75,7.2.17,6.33-.01,12.56-.5,18.91.65,1.33.85,2.66.6,4.11l-1.09.32-.48,3.06c-.12.75-.83,6.03-1.29,6.07-.37.02-.62-.3-.75-.2-.07.05-.19.19-.27.3l-3.8,5.31c-.01.21,0,.6-.1.75-.13.21-.42.19-.69.14-.84.73-.88,2.49-2.1,2.89-.82-.14-1.58-.3-2.39-.35-1.78-.12-1.95.4-2.55-.29-.51.17-1.1.38-1.66.51-1.99.5-1.58,1.33-2.82,1.11-.52-.09-1.05.1-1.59.1-.69,0-1.4-.46-2.1-.52-.38.23-.74.34-1.18.16l-1.06-.44c-.51-3.89-1.4-7.35-1.91-11.23.14-.37.43-1.02.22-1.4-1-.39-1.86-.84-2.82-1.43l-.08,1.8c-.03.67.07,1.41-.03,2.08l-.57,3.91c-.09.6-.2,1.14-.46,1.71-.24-.48-.3-.9-.31-1.39-.12-4.07-.05-6.59-1.06-10.58-.05-.19-.26-.47-.28-.71-.24-2.88-.11-5.69.5-8.5.19-.9.24-1.78.24-2.71l.05-9.82v-11.1s.02-21.1.02-21.1c0-2.37.19-4.66-.22-6.96l-.5-2.77c-.39-2.16-.16-4.31-.03-6.52.01-.22.28-.52.32-.7l.64-2.71c.21-.88-.04-1.84.08-2.74.05-.4.25-.79.37-1.18.17-.56.14-1.19.68-1.59.71,2.47.53,3.94.73,6.36l1.52-.88-.3-1.08c-.14-.15-.49-.34-.53-.59-.06-.33.09-.46.43-.72.21-.16-.04-.65-.02-.89.06-1.03.26-2.03.57-3.03.15-.48.59-.88.99-1.19.02.71-.05,1.25.26,1.82.53.03,1.1.04,1.61,0l1.73-.18c1.02-.11,1.93-.18,3.01-.02-.74.93-2.46,1.62-1.57,3.1l.46.77c-.97-.15-1.86-.44-2.86-.45,2.78.61,4.19.89,6.4,2.8l-.07.82.3-.57c3.72,3.66,3.42,9.99-.38,13.33-.99.87-2.06,1.49-3.16,2.21-.09.56-.15,1.13-.15,1.65.82.12,1.47.2,2.17.44,1.34.46,1.07,2.09.92,3.15l-1.7.07-1.37.08-1.99.15-.05-.96c-.01-.3-.31-.64-.56-.71-.32-.09-.7.05-.92.32-.32.4-.32.93-.22,1.45.72-.35,1.28-.22,1.81.12l2.27-.23,1.87-.06c1.09-.04,2.11-.13,3.18,0l1.35.16.07,1.62.11,2.4.11,2.53.08,2.59.07.95.07,3.6.15,3.7c.1,2.59-.64,1.86.12,4.59.12.43.04,1.08.04,1.52l-1.62-.06,1.69.31.27,8,.31,7.93c.02.44-.12.89,0,1.28.04-.81.17-1.6.86-2.11l.11,1.48c.12,1.55-.46,3.28.51,2.94l-.08-2.86c-.01-.39-.09-.8-.14-1.17-.2,1.21.19,1.34.03,2.7.02.19,0,.17-.13,0l-.08-1.63-.07-1.48c.6.58.86,1.26,1.01,2.02.12-.89-.33-1.69-.97-2.28l-.1-2.01-.1-2.76-.11-2.83-.1-2.55-.12-2.32-.06-2.02s-.07-.19-.08-.23c-.02-.05-.15.14-.15.2l.1,1.05.08,2.07.11,2.47ZM32.55,64.84c-.02,5.65-.47,11.12-1.02,16.71.54-2.56.71-5.14.89-7.81.34-5.23.47-10.39.31-15.63-.05-1.71-.13-3.27-.4-4.89-.08.44,0,.81,0,1.23l.23,7.02v3.36ZM31.5,52.35l.12,1.31.1,1.28.12,2.28c0,.06-.05.25-.06.3s.07.08.2.16l-.08-1.38-.12-2.21-.1-1.28c-.2-2.65-.66-5.25-1.74-7.69-.87-1.97-1.9-3.79-3.15-5.53.96,1.9,2.15,3.53,2.98,5.48.98,2.32,1.51,4.72,1.74,7.27ZM31.24,73.93c.18-.11.17-.29.18-.51l.08-1.38.1-1.37.11-1.9.09-1.86.1-4.43c.03-1.58.1-3.11-.02-4.75-.05,1.14-.06,2.28-.08,3.48l-.09,4.48-.07,1.48c-.03.61-.04,1.19-.08,1.79l-.11,1.69-.1,1.48-.12,1.78ZM31.83,47.83c-.17-1.22-.53-2.21-.89-3.34-.72-.08.87,3.22.89,3.34ZM25.08,39.45l.42-.59c2.89,4.49,4.97,7.86,5.43,13.42l.1,1.18.12,1.79.08,1.16-1.98-.79-6.42-2.23c1.43.77,2.9,1.09,4.37,1.67l4.02,1.55c0,.41-.07.73.15,1.04l-.08-2.82-.11-1.55c-.16-2.25-.52-4.42-1.24-6.56-.83-2.44-2.87-5.88-4.38-7.99-.12-.17-.11-.55-.1-.76h.23c-.45-.77-.17-1.3-.86-2.09-.22-.25-.67-.36-.91-.18l.18,2.05c.05.52.06.96.07,1.52l-1.09-.06c.54.38,1.34.44,2.01.24ZM21.21,74l-.45.31c-.39.27-1.09-.77-1.27-1.26l.08,2.28-1.47-.88c.48.45.96.74,1.5,1.12l.38,13.67c.03,1.25-.13,2.37.06,3.61.25.03.89-.18.88-.52l-.07-6.77-.1-4.65-.08-.56-.06-3.78c-.09,1.46-.02,2.85,0,4.28l.05,3.66c.02,1.67.08,3.26-.03,4.87-.07-.63-.15-1.18-.17-1.82l-.44-11.72.56.4c.87.62,1.72,1.15,2.8,1.53.03-1.03,0-1.88-.03-2.82l-.08-3.33c-.01-.55-.1-1.1-.05-1.6l6.62.68,1.22.19.11-2.37.11-2.12.1-3.58c.03-1.2.05-2.33.06-3.57,0-.18-.24-.4-.42-.42l-2.77-.3c-1.77-.19-3.45-.66-5.24-.67,1.95.41,3.82.65,5.77.88l2.44.33-.05,5.75-.09,2.7-.09,1.7-.12,1.42-7.66-.77c0-.91-.03-1.67-.06-2.52l-.11-3.67-.1-3.4-.12-2.62-.09-2.04c-.35.23-.09.54-.08.81l.06,2.39.12,2.52.1,3.17.1,3.51.11,3.89.09,3.83c.02.66.08,1.23.03,1.91-1.26-.61-2.26-1.27-3.25-1.99l-.04-1.35.43.25.11.82.1-.72.6-.62ZM23.34,77.86c-.07.81,0,1.45,0,2.16l.1,5.28.11,2.45c0,.09.82,2.64,1.8,2.3.47-.16.86-.73,1.19-1.11,1.51-1.75,3.14-3.79,3.63-6.1.4-1.9.63-3.76.86-5.68.12-1.02.28-1.99.26-3.04-.3,1.51-.37,2.99-.58,4.52-.19,1.39-.37,2.72-.66,4.1-.49,2.42-2.63,4.99-4.26,6.83-.17.19-.47.36-.67.35-.71-.03-1.47-1.98-1.49-2.66l-.03-.75-.08-3.32-.08-4.06c0-.44-.08-.86-.13-1.26ZM30.02,89.23l.3.15c.27.13,1.03-4.32,1-4.79l-.36.93c-.23.27-.2.53-.22.9-.05,1.25-.87,2.75-.73,2.82ZM29.63,82.22c-.51,2.68-2.42,4.67-4.15,6.52-.52.56-1.36-1.22-1.54-1.28.18.68.64,1.23,1.29,1.68,1.76-1.59,4.03-4.22,4.49-6.56.64-3.28.99-6.55,1.21-9.9.04-.62.09-1.15.04-1.7-.35,1.26-.01,1.58-.35,2.83-2.2,1.12-4.45,1.96-6.77,2.82l-.25.09s.06.13.1.14.14,0,.21-.02l2.11-.8c1.61-.61,3.12-1.25,4.62-2.02.02.2,0,.45-.06.66-2.3,1.22-4.68,2.07-7.03,3.14,2.52-.65,4.68-1.88,7.06-2.87-.22,2.44-.51,4.81-.98,7.27ZM23.39,67.82l1.39.22,4.53.75.31-8.29c.03-.88-.47-1.54-1.37-1.57-.12,0-.46-.08-.47.04l-.08.52c-1.3.48-3,.62-4.52.67l.23,7.65ZM24.67,95.01c-.34.42-.68.83-.58,1.39,1.15-1.28,2.11-2.56,3.07-3.92l2.24-3.15c.07-.1.32-.33.25-.42-.06-.08-.17-.22-.3-.37l-2.03,2.96c-.83,1.21-1.7,2.33-2.64,3.51ZM22.45,43.01l.42,9.92,5.35,2.03c.32.12.7.06.96-.13.2-.15.32-.54.3-.85-.1-1.68-.23-3.3-.61-4.94-.6-2.57-2.33-5.33-3.61-7.51-.08.22-.22.49-.36.55l-2.45.94ZM23.54,69.6l5.52.59c.11.01.26-.26.21-.32-.37-.43-4.82-1.08-5.75-1.25-.12.38-.12.62.03.98ZM23.57,72.54c.01.47.48.75.91.61,1.54-.5,3.04-1.03,4.52-1.97-1.93-.33-3.7-.43-5.51-.61l.08,1.96ZM25.73,84.58l1.47-1.57c1.07-1.2,1.42-3.8,1.46-5.46l-3.56,1.6-.35,3.35c-.05.45-.03,2.17.53,2.28.11.02.35-.09.45-.2ZM22.43,41.2c-.14.05-.06.6,0,.65l2.39-.91c0-.17-.25-.49-.39-.44l-2,.71ZM23.75,35.45l.25-.11-1.03-1.25c.24.5.5.91.78,1.35ZM21.39,98.19l1.3.37c.59-.4,1.2-1.02,1.16-1.83l-.66.98c-.54.8-1.36.11-1.8.48ZM23.24,35.49c-.56.17-.7.2-.93.41l1.27-.3-1.18-1.44c-.14-.17-.34-.36-.51-.43l1.34,1.76ZM23.26,37.69c-.03-.69-.21-1.19-.48-1.69.03.64.18,1.22.48,1.69ZM22.7,53.12l-.74-15.95h-.26s.74,15.96.74,15.96h.26ZM18.68,7.31c.08.81.28,1.42.45,2.15.86,4.02,1.32,8.04,1.68,12.12l.1,1.1c.15,1.74.37,3.42.76,5.13.21.7.42,1.35.88,1.9-1.04-2.36-1.17-4.25-1.42-6.74l-.47-4.69-.5-4.15c-.29-2.36-.74-4.63-1.47-6.82ZM19.9,54.43c.92.47,1.78.82,2.68,1.11-.86-.55-1.72-.94-2.68-1.11ZM21.84,36.06l-.06-1.93-.06-1.26.64.52c-.25-.42-.46-.67-.82-1.03-.02.41,0,.79.02,1.23l.1,1.58.06,1.7c.34-.2.11-.51.1-.81ZM19.95,97.06l-1.04.73c0-.51.2-.88.47-1.27.8-1.15.33-2.53,1.08-2.57.22-.01.17.41.18.58l.09,3.16.39.02c-.32.12-.63.23-.61.42.2.15.78.03.78-.17.03-1.78-.11-2.76-.29-4.59-.01-.13-.18-.37-.3-.39s-.44.04-.53.15c-.51.64-1.07,1.45-1.43,2.24-.33.71-.37,1.44-.56,2.19-.04.17-.05.47.07.59.1.09.34-.03.52-.08l.56-.17c.29.12.73.13,1.04-.05l.17-1.73c-.22.35-.36.77-.6.94ZM20.79,41.71l-.83-10.77-.28.02.83,10.77.28-.02ZM19.95,96.22l.55-1.36v-.73c-.22.11-.3.31-.33.51l-.22,1.57ZM15.34,86.38c.37,2.37.77,4.6,1.39,6.86.38,1.38.89,1.27,1.45,2.13l.37-.73c-.21-.63-.4-1.24-.5-1.91l-1.07-7.05c-.15-.96-.37-1.86-.63-2.82l-1.09,1.86c-.27.45,0,1.09.09,1.66ZM18.04,27.4l.15,1.23c.06-.48,0-.96-.03-1.49l-.53-3.4c0,1.23.27,2.38.42,3.66ZM17.32,8.24c.53-1.58-.05-3-.11-4.54l.52,2.54c.23-1.04-.54-3.44-1.09-4.62-.15.79.23,1.44.3,2.19l.39,4.42ZM14.96,94.6l-.15.87c-.44.08-1,0-1.33-.3-.46-.42-.61-1.04-.66-1.64-.04-.64-.28-1.21-.55-1.78-.24-.51-1.07-2.25-1.78-1.89.24,1.82.58,3.53.99,5.24.27,1.14,1.05,1.84,2.14,2.18.95.3,1.95.58,2.91.21.28-.8.49-2.07,1.29-2.39-.71-.52-1.12-1.2-1.3-2.03l-.75-3.46c-.23-1.07-.47-2.11-.6-3.2-.05-.44-.11-.85-.2-1.3-1.3,1.57-2.03,1.79-3.53,2.83-.08.06-.02.36.07.41.07.04.3.12.38.11l2.43-.1c.43-.02.79.13.97.55.42,1,.65,2.07.71,3.16-.41.83-.87,1.61-1.04,2.53ZM17.52,97.99c.08-.03.27-.24.25-.32l-.05-.18-1.87.31c-.78.13-1.32.93-1.73,1.59,1.65-1.17,1.63-.8,3.4-1.4ZM16.98,27.38l.67-1.07c.13-.22.03-.64-.16-.9-.46.59-.79,1.23-.51,1.97ZM13.16,71.04l.52.49c-1.11-.55-2.07-1.18-3.08-1.88l-2.38-1.65c.43.54-.01,2.14.29,2.76.19-.79.12-1.53.06-2.33l2.28,1.6c.62.43,1.24.76,1.79,1.27l.5.47c3.3,3.1,4.42,4.77,3.53,10.09.44-.66.44-2.87.39-3.89-.05-.96-.49-1.82-.64-2.77-.07-.47.04-1.05.11-1.53.02-.14-.02-.36-.01-.5.37-4.54.63-9,.49-13.57l-.16-5.36-1.27-.2,1.27-.11-.8-23.33c-.58-.05-1.08-.05-1.72-.04-.04.64-.03,1.11.03,1.71.35,3.34.43,6.63.48,10l.08,6.34c.02,1.81,0,3.58-.1,5.31-.63-.03-1.17,0-1.79.03l-1.87.07c-.3.01-.63.08-.96.14.65.09,1.31-.03,2-.04l2.59-.03c.09,1.06.17,2.08.18,3.18l.04,7.39c0,1.69-.19,3.31-.66,4.9-.19.65-.57,1.11-1.17,1.5ZM16.52,4.49l-.48.49s.2.2.13.21l-.28.07-.32.08s.06.17.07.22l.04.26s-.09.06-.23.11l1.31,2.67c.44-.38.16-.76-.01-1.13l.12-.76-.28-.33c-.05-.06.12-.27.14-.35-.12-.16.16-1.62-.06-1.34l.14-.18c.04-.05-.1-.24-.14-.19l-.17.17ZM15.24,5.29c-.04-.74-.35-1.46-.7-2.1.17.78.39,1.41.7,2.1ZM14.1,16.79c.2-.88.15-1.66-.05-2.43-.16-.21-.07,2.54.05,2.43ZM12.23,82.38l-1.44-1.02c-.51.21,1.39,1.41,1.54,1.36.25-.14.34-.15.19.03l-1.29,1.11c-.09.08-.21.12-.36.18l-1.28.54c-.17.07-.54.08-.78.13l.21.18c-.47-.05-.81-.09-1.18-.05.82.39,1.65.16,2.43-.13,1.83-.67,3.19-2.19,3.69-4.06.58-2.15,0-4.22-1.56-5.8s-3.76-2.28-5.82-1.59l-1.02.34c.31.44.8.04,1.15-.05,2.2-.58,5.14.43,6.17,2.48l-2.2,1.36c.85-.26,1.54-.71,2.36-1.06.97,1.45.91,3.22.36,4.82-.13.39-.24.65-.5.96l-.26.31c-.05.06-.35-.02-.42-.06ZM10.35,80.11l2.67,1.07c.1.04.17-.03.3-.23l-2.18-.89c-.22-.09-.59-.1-.78.05ZM12.81,98.33l-.91,1.23,1.38-.11-.71-.12.4-.75c.03-.06.07-.22.08-.28,0-.04-.21-.02-.24.02ZM10.95,13.63c.84-.4,1.41-.73,2.2-.95l-.38-.56c-.22.61-1.58.94-1.82,1.52ZM10.58,15.01c.2.15.38.17.54.12l1.94-.72c-.28-.08-.63-.06-.92.05l-1.56.56ZM11.81,18.11c.64.1.62-.35.8-.64l.14-.72c.09-.44.27-1.03-.39-1.18.19,1.02.01,1.81-.55,2.54ZM10.79,21.24c.64-.13,1.14-.56,1.53-1.04.78-.66-2.5,1.26-1.53,1.04ZM12.03,19c-.11-.31-1.05-1.25-1.51-1.08-.21.08,1.29,1.03,1.51,1.08ZM11.88,16.87l-.07-.71.15-.11s-.04-.11-.07-.11h-.26c-.14,0-.22.36-.18.51.03.12.21.26.43.43ZM7.53,97.87c1.16.88,2.43,1.29,3.73,1.63-1.24-.61-2.47-1.19-3.73-1.63ZM9.31,13.11c.05-.12.09-.28.15-.26l.24.09c.05.02,0,.18-.03.33l.77.35c.13.06.47-.3.45-.39-.82-.45-1.14-1.26-1.89-1.15-.18.2-.32.78-.19,1.01.06.11.45.13.5.02ZM3.21,12.75c.48-.72,1.34-1.42,2.1-1.86,1.02-.59,1.98-.83,3.16-.82.38,0,1.04.18,1.39.28.08.02.36-.11.3-.15-.45-.33-1.96-.41-2.61-.39-1.32.05-2.54.69-3.52,1.52-1.73,1.47-.86,1.46-.83,1.41ZM8.76,62.81c.05.48.35.99.82.99.32,0,.59-.5.58-.85l-.29-8.71-1.55.09c-.02.59-.07,1.08-.04,1.64.11,2.29.25,4.5.48,6.82ZM7.33,21.8c.04.3,3.13.04,2.57-.39-.05-.04-.19-.07-.27-.05-1.02.25-2.07.25-3.07.02l.26.43c.2-.05.45-.12.52,0ZM7.82,43.2l.11,3.63.09,2.5.07,1.58.06,1.58.06,1.68,1.68-.12-.29-11.7-.38-11.43-1.75.05c-.01.51.02.89.04,1.37l.09,2.78.11,4.2.1,3.87ZM7.58,79.12c0,.19.38.4.56.39.21,0,.41-.24.5-.52s-.28-.54-.5-.52c-.28.03-.54.22-.55.64ZM7.72,15.84c-.09.24.07.57.24.61.18.04.51.03.59-.1s.08-.51,0-.65-.36-.29-.49-.25c-.11.03-.27.21-.34.39ZM7.61,75l1.03-.02c-.04-.25-.1-.5-.22-.51l-.57-.04c-.12,0-.36.12-.45.2-.07.06.09.37.2.37ZM8.34,12.37c.24-1.12-.21-1.01,0-1.99l-.28-.13.1,1.17c.03.37.07.65.18.96ZM7.51,84.51l.05.26s.12.03.22.03c-.21-.42-.24-.75-.18-1.18l.26-1.77c-.75,1.03.03,3.06-1.03,2.77l-1.65-.45c.09.55,2.26.91,2.34.35ZM6.56,32.85l.1,5.45.11,5.9.1,6.04.11,4.95.1,4.45.11,3.04.08,1.97.12,1.7c.11-.59.01-1.18-.02-1.81l-.09-2.06-.1-3.27-.1-4.45-.11-5.16-.1-6.46-.11-6.54-.05-5.48c0-.11-.15-.26-.22-.29,0,.71.05,1.29.06,2.01ZM7.33,76.76c-.18-.92-.27-1.95-.96-2.7.11,1.01.6,1.81.96,2.7ZM5.8,33.12l-.08-2.59c-.03-.94-.11-1.81-.51-2.71-.16.41-.22.81-.22,1.23l.08,6.59.1,7.41.11,7.27.1,5.83.1,5.16.21,5.56c.01.3.28.75.58.69.54-.12.72-.75.73-1.27.04-2.14-.06-4.23-.16-6.39l-.13-3.06-.08-1.74-.1-2.97-.11-2.73-.11-2.96-.1-3.29-.11-2.52-.11-2.43-.09-2.38-.07-1.28-.07-1.42ZM6.31,12.45c-.76.29-1.37.65-1.78,1.44l1.46.76.95-1.06c-.35-.21-.54.08-.88.22.09-.24.36-.39.67-.54l-.41-.82ZM6.91,19.23c-.34.47-.67,1.25-.82,1.76-.01.05.12.28.15.24.19-.25.7-1.58.67-2ZM6.45,27.45l.12,3.3.02-4.97c0-.25-.11-.62-.17-.85-.04.85,0,1.65.03,2.53ZM4.73,74.88c.21,1.09.97,1.96,1.84,2.47l-1.84-2.47ZM3.73,80.72c.39.93,1.03,1.57,1.79,1.91.09-.21.18-.39.3-.61.09-.16,0-.61-.14-.72-.35-.25-.6-.53-.85-.94l-1.1.36ZM3.88,13.26c.52-.58,1.05-1.1,1.67-1.52.08-.05.14-.27.1-.34s-.29-.1-.37-.04c-2.1,1.62-1.9,2.47-1.39,1.9ZM3.33,29.49l-.2,31.76-.07,8.54c0,.97-.04,1.81.16,2.8l1.01-.93c.4-.37.8-.69,1.22-1.03l-1.26-.11v-19.5s-.03-25.94-.03-25.94l.69-.53-1.35-1.93c-.18,2.34-.15,4.52-.16,6.87ZM2.35,77.92c.41-1.45,1.16-2.54,2.25-3.34l.75-.65c-.12-.05-.4-.05-.59.06-1.35.74-2.29,2.09-2.69,3.53l.28.41ZM4.37,79.42l-.55-.16,1.3-.33c-.45-.2-1.47.05-1.72.44-.02.04.11.17.15.16l.81-.11ZM3.03,82.64c.56.7,1.13,1.21,1.9,1.71l.25-.2c-.78-.54-1.59-1.36-2.13-2.05-.08-.04-.33.16-.28.22l.26.32ZM3.91,77.94l-.38.57h1.02s.34-1.71.34-1.71l-.56,1.12s-.14-.13-.13-.19l.04-.27c-.23.02-.37.02-.46.07-.07.04.08.31.13.4ZM2.93,80.71l1.46-.39c-.14-.09-.29-.14-.37-.12l-1.58.3c0,.06.03.32.11.31l.38-.1ZM3.68,20.02l.2-.13c-.26-.42-.51-.94-.99-1.06.13.56.43.76.79,1.2ZM2.36,17.69c.06.12.02.42.11.5l.34.28-.62-2.64c-.46.57-.1,1.33.16,1.86ZM2.06,15.62c.12-.62.32-1.45.49-1.91.01-.03-.12-.23-.13-.2l-.07.2c-.2.62-.38,1.29-.3,1.91Z"/>
  <path d="M18.5,26.8c-.08-1.44-.39-2.01.48-2.89.13.42.2.85.24,1.31l.5,5.26h-1.03s-.08-1.75-.08-1.75l-.11-1.93Z"/>
  <path d="M5.36,31.08c.12.77.2,1.42.24,2.15l.11,1.78.1,2.13.11,2.41.1,2.55.12,2.62.09,3.39.12,2.63.1,3.3.1,4.39c.01.64.04,1.24.03,1.88l-.06,3.21c0,.56-.13,1.1-.38,1.65-.34-.6-.41-1.22-.44-1.87l-.11-3.25-.1-6.01-.1-6.78-.11-7.79-.08-6.68c0-.58-.07-1.09.16-1.7Z"/>
  <g>
    <path d="M18.27,32.83l-.07-2.03s.17-.17.19-.14c.03.04.1.15.11.22l.1,1.79.1,2.14.11,2.51.09,1.96.06,1.28.07,1.48.11,2.32.07,1.48.1,1.82c.01.22-.13.42-.39.68l-.03-.81-.1-2.54-.11-2.74-.08-2.05-.1-2.76-.11-2.3-.11-2.3Z"/>
    <path d="M19.83,53.03c-1.62-.15-1.43-3.92-.61-4.64l.24,1.26-.04-1.38c1.36.31,1.79,4.49.41,4.76ZM19.49,49.72v2.44c-.01.2-.28.51.2.62.5-.87.17-2.81.06-3.78l-.1,1.09-.17-.36Z"/>
    <path d="M8.03,45.63l-.1-3.86-.11-3.68-.1-4.03c-.02-.89-.07-1.87-.02-2.74.13-.15.55-.22.7-.14.16.09.39.39.4.62l.2,3.59.39,13.94v3.92c0,.13-.15.37-.25.45-.11.09-.55.06-.58-.09-.1-.46-.21-1.07-.25-1.52l-.08-1.19-.1-2.15-.1-3.12Z"/>
    <path d="M24.29,37.92c-.05-.67-.07-1.23-.08-1.93.28.1.51.31.57.56.16.67.65,2.24.23,2.63-.12.11-.43.2-.61.21l-.12-1.47Z"/>
  </g>
  <path d="M9.28,57.78c-.32-.06-.62-.82-.62-.88l-.18-2.32c.27-.15.58-.17.92-.09l.03,3.03c0,.07-.1.26-.15.25Z"/>
</svg>