<?xml version="1.0" encoding="UTF-8"?>
<svg id="_Слой_1" data-name="Слой 1" xmlns="http://www.w3.org/2000/svg" xmlns:xlink="http://www.w3.org/1999/xlink" viewBox="0 0 61.62 108.19">
  <defs>
    <style>
      .cls-1 {
        clip-rule: evenodd;
        fill: none;
      }

      .cls-2 {
        clip-path: url(#clippath);
      }
    </style>
    <clipPath id="clippath">
      <path class="cls-1" d="M61.62,92.27V16.13C60.86,14.9,50.46-.02,31.31,0,12.18,0,1.8,15.31,1.03,16.54v76.13c.53.96,11.23,15.5,30.72,15.52,19.56.02,29.32-14.99,29.87-15.92h0Z"/>
    </clipPath>
  </defs>
  <g class="cls-2">
    <g>
      <path d="M50.42,90.68H0c.87-1.66,2.19-3.03,3.26-4.64.89-1.33,1.23-2.93,1.9-4.39l2.59-5.65c-.85-3.56-1.43-6.15,1.37-9.07l3.53-3.67c.11-1.52.34-3.01.24-4.53-.11-1.79-.42-3.49-.41-5.28.03-4.11,2.19-7.22,2.32-12.87.06-2.5-.79-4.76-2.36-6.63-1.06-1.25-1.48-2.97-.62-4.43.58-.98,1.66-1.33,2.73-1.63,1.91-.53,1.54-3.09,4.09-1.92,1.17-1.52,1.4-1.74,3.21-1.64,1.06-1.01-.14-2.32,1.42-3.32s5.03,1.03,7.27,1.05c.55-.52,1.12-1.24,1.84-1.32l3.24-.37,1.37-.11c.88-.07,1.91-.12,2.79,0l2.66.4c.59-.74.74-1.6,1.05-2.45.97-2.67,3.69-5.43,6.55-5.28,3.74.19,3.82-1.04,4.65-.76.73.24.89,2.18-.65,3.19-.17.11-.47.53-.4.72.16.45.8,1.3,1.81,1.18,1.54-.18,3.12.33,3.92,1.71.27.46.04,1.35-.21,1.77-.42-.18-1.15.36-.96.82.46.54,1.19,1.04,1.81,1.57.2.17.13.86.22,1.11.44,1.11.25,2.18.05,3.31-.38,2.2.04.24-1.14,2.7-.13,2.41-.97.86-.55,2.73.66,2.99,2.58,1.81,2.65,3.56.07,1.65.31,2.81.37,4.25.02.44-.29,1.35-.52,1.72-.2.32-.63.75-.88,1.02l-1.48,1.55c.15,1.12.31,2.14.2,3.21-.32,3.11.49,2.24-.68,5.64-.26.76-.23,1.82-.89,2.4-.28,0-.65-.35-.82-.62l.08,1.37c.01.25-.63.45-.81.63-.58.58-.78,1.61-.99,2.42l-.69.25c-.85,1.06-2.04,1.74-3.21,2.32-1.9.95-1.05-.35-2.96,2.05-.45.57-.98.61-1.6.4l-1.4.83c-.54.32-1.04.85-1.69.86-1.88.02-2.1-.69-4.06,1.43-.35.38-.71.64-1.14.91l1.35,3.31,1.36,2.81c.68,1.41,1.57,4.01,1.61,5.52l.11,4.13c.77.23,1.41.53,2.04.97,1.1.77,2.17,1.49,3.32,2.18.99.6,2.18,1.55,2.53,2.58ZM43.89,47.78c.4,1.1-.34,4.47.11,4.4l.33-.04c-.12.3-.35.87-.54,1.09-.42.29-.93.6-1.11,1.13-.08.23.21.79.35.87l.23-.23s.14-.04.12,0c-.02.05-.14.3-.15.35l-.1,1.68c.93-2.17.07-3.55,2.32-5.3.6-2.04.27-1.01.19-2.47-.05-.91-.15-1.65-.33-2.68.43.17.84.67.86,1.21l.07,1.8.29-.66c-.17-.5-.19-1.04-.08-1.57l.46-2.33c1.09,1.16.66,2.32.07,3.48l-.71,1.39c-.24.47-.37,1.18-.5,1.7l.69-.14c.11-.02.16.3.26.6l.79-1.01,1.07,2.04c.1.2-.24.64-.52.84-.53-.29-.79-.9-1.21-1.55.42,1.93.6,2.12,2.15,2.49l-1.22-.18.35.59c.29.48.34,1.41.18,1.98-.13.47-.85.8-1.35.94l-.04-.93-.49.23c-.12.05-.29-.32-.38-.41l-1-1.01c-.26.67.23.93.68,1.39-.28-.02-.64-.08-.98-.14l.2.55c.04.11-.24.34-.26.46l-.09.76c-.06.52-.28,1.06-.39,1.6.85-.34.65-3.85,1.48-2.19.73,1.46-.68,1.17-.17,3.25.19-.01.68-.06.69.08l.05.6.75-.73-.1.98.53-1.02c.06-.12-.22-.53-.28-.49.64-.33,1.12-.78,1.57-1.4l-.22,1.16c1.57-2.24.6-1.72,1.01-3.92l.26.9.56-1.16c-.13.78-.12,1.5-.02,2.29,1.06-.58.91-1.51.91-2.46.2.47.36,1.28.43,1.75.02.12.47.3.49.19l.07-.36.93.72.09-1.13.23.69.09-.79.37,1.42c.08.3.05.45-.08.96l.73-.11c.23-.92.58-1.87,1.08-2.61,1.41.04.12-1.44.79-2.46l.94,1.28c.36-1.43.59-2.47.81-3.76.24-1.43-1.13-2.89-.76-3.35l1.07.6c.25-1.45.23-2.65-.03-4.04-.08-.41.11-.79.39-1.07l1.05-1.04c.08-.08.34-.33.26-.39l-.34-.27c.3.06.64.06.81-.1.24-.24.37-.68.44-.96l.11-.47c.02-.1-.16-.28-.18-.3.12-.05.34-.24.32-.37l-.23-1.87c-.25-2.05.13-2.74-.92-3.12-.91-.33-1.76-1.42-1.87-2.58-.02-.16-.34-.47-.29-.6l.26-.63-.72.08c-1.29-2.38-1.41-2.47-1.13-5.24,1.51-.59.9,1.34,3.22,2.25.57-2.43.71-2.47.31-4.5l-.2-1.02-2.09-1.75.78-1.25c.22.05.41.13.43.06.16-.58.58-1.06-.01-1.67-1.47-1.51-2.65-1.15-4.44-1.21l-1.3-1.36.42-.82c1.13-.46,1.8-2.4,1.14-2.85-.17-.12-.59.03-.86.15-3.27,1.46-3.63-.14-5.73.96-.62.32-1.36.61-1.88,1.1-1.21,1.12-2.14,2.5-2.63,4.08-.24.76-.45,1.67-1.11,2.18-2.53-.28-2.89-.64-5.64-.4l-1.22.11c-1.1.1-2.24.23-3.31.42-.41.39-.89,1.32-1.58,1.27-1.92-.16-3.68-.76-5.52-1.29-1.12-.32-2.43.16-2.53,1.41-.09,1.1-.03,2.04-1.28,2.28.78,1,.77,2.19.52,3.41-.09.46-.1,1.24-.61,1.4-.54.18-.93-.47-1.16-.83l-.59-.92c-.12-.18-.69-.18-.87-.28-.64-.37-1.26-.83-1.87-1.28-.54.55-.99,1.46-1.72,1.74l-1.96.73c-.71.26-1.16.95-1.38,1.7,1.37.05,2.39,1.77,3.12,2.86l2.01,2.97c.83,1.23,1.88,2.4,2.93,3.44l3.39,3.37c.62.61,1.64,1,2.4.44,1.93-1.4,1.63-1.63,4.6-1.67.64-.97-1.29,3.1-.65,1.9-1.03,1.92-3.2,2.31-5.15,2.04-1.52-.21-2.75-.62-3.89-1.68-1.44-1.35-3.62-1.13-4.85.36-.3.36-.47.67-.53,1.14-.17,1.61-.51,3.1-1.07,4.6-.6,1.6-.25,3.83.84,4.12l3.73.96c.43.11.68.51.8.98,1.01-1.29,2.45-2.2,4.18-2.5l-2.61,1.56c.59.56,1.03,1.25.91,2.17-.04.28-.49.71-.74.88-2.17,1.43-2.13,3.01-5.35,3.94-3.81,1.1-2.03.4-4.35,2.63-1.11,1.07-2.17,2.11-3.07,3.37-1.13,1.58.13,3.99.7,5.34.77,1.83,1.21,6.52,1.97,8.83l2.22-1.35c1.43-.87,6.03-1.2,7.89-1.21,4.1-.03,6.88.22,10.65,2.3-.66-1.73-.74-3.57.04-5.11-.02,1.87-.37,3.64.32,5.27l4.52,2.74,1.17.9c1.44-.61,2.87.04,4.31.28-.01-4.75.31-6.66-1.67-10.86l-1.48-3.13c-.63-1.33-1.09-2.65-1.72-3.98-.91-1.92-1.05-4.28-2.99-6.71-.74-.92-1.56-1.84-2.44-2.59-.99-.84-2.01-1.59-2.55-2.72-1.4-.18-2.77-.27-4.19-.63,1.5-.41,2.88.1,4.36.47-.65-1.05-1.61-1.59-1.33-2.73.33-1.35,2.49-1.58,3.41-2.12-1.23-1.65-.26-3.55-.33-5.6.88,1.89,1.5,1.44,2.46,2.29.77.68,1.48,1.19,2.52,1.39.95.19,1.97.51,2.91.54,1.41.05,2.86-.53,3.58-1.78-.66-.08-1.06.61-1.62.8-1.43.49-3,.35-4.28-.25,1.48.3,2.79.36,4.13.06-.94-.62.25-1.64-1.48-2.8l-.5-.94-.64,2.15c-.76-.05-1.01-.7-.98-1.28.03-.45.45-.93.96-1.05l1.34-.33c.67-.17,1.34.03,1.98.27-.38-.91-1.06-1.39-1.54-2.15.72.34,1.47,1.08,1.71,1.86.42,1.31.81,2.6,1.07,3.97.17.92-.28,2.09.58,3.03.04-.2.27-.77.28-1.04l.1-2.64ZM20.94,28.49c0-.74-.05-1.3-.37-1.85-.26-.43-1.06-.44-1.45-.38,1.22,1.15.94,1.54,1.83,2.23ZM35.62,61.93l1.1-.83-1.56.72c.16-.72,1.88-1.99,2.76-1.55.19.83-.55.97-.61,1.92l.89-.72c.38-.31.69-1.17.86-1.63-.6-.64-.47-1.15-.22-1.81.31-.81.04-1.66.05-2.47,0-1.06,2.12-6.14.85,1.64l-.54-.99-.16,1.85c-.05.6-.11,1.18.02,1.69l1.69-1.68c.22-.22.18-.87.09-1.32-.39.72-.69,1.5-1.4,2.15.63-1.52,1.13-2.79,1.08-4.42-.02-.58.03-1.2.42-1.8l.12,3.02c.18-.9.23-1.9.04-2.84l-.3-1.53-.21.34s-.14.01-.14-.03l.03-.32c.01-.16,0-.45-.05-.61-.03-.11-.37-.22-.44-.12-.33,1.07-.72,2.24-1.31,3.15-.46.71-.32,1.61-1.27,1.98l.4-1.49-.58-.05c-.1,0,.03-.42.1-.51l1.16-1.43c.05-.07.25-.19.31-.24s-.16-.27-.22-.21c-.04.03-.14.13-.2.2-.43.46-.92.32-1.46.25-.27-.03-.64.25-.98-.09-.21-.04-1.96,1.55-1.89,1.06.01-.06.03-.36.07-.41l1.55-1.78-2.58.37c-.91.13-1.67.3-2.54.65-.73.3-1.77.53-2.03,1.41s.47,1.55,1.04,2.08l.49,1.37,2.53.71-.04-.85,1.94,1.17c.82.5,1.82.65,2.85.62.04.06.1.47.1.63s-.29.23-.46.36l-.78.6c-.08.41-.2.66-.57.86s-.54.11-1.23,0l1.12,1.76.36-.49c-.2.06-.41.13-.36.07.03-.04.1-.37.14-.4ZM42.7,56.08l-.63-.35c-.05.88-.14,1.67.09,2.59l.54-2.23ZM42.65,59.04l.42-1.84c-.25.03-.4.06-.43.17l-.11.44c-.11.47-.35.86.11,1.22ZM43.52,64.91c.16.16.51.5.43.67l-.35.81c0,.07.56-.14.58-.3.05-.37.09-1.14.11-1.46-1.81-1.36.93-2.22-1.72-4.1l-.67-1.6c.12,1.1.61,1.89,1.12,2.93-1.24,1.08-2.65.94-3.42,1.57,1.38-.07,2.36-.47,3.64-1.03-.02.76-.92,2.15-.52,2.32l.43.18c-.2-.58-.31-1.02.17-1.46l.18,1.46ZM46.59,64.81c.46.32.82.11,1.09-.2l1.55-1.74c-.39-.24-.46-.57-.55-1.1l-1.06,2.15c-.04.08-.22.25-.26.21l-.2-.22-.57.89ZM7.39,85.05c-.98-.52-1.96-.03-2.57.52l2.57-.52ZM44.46,87.28c.37.17.68.32.94.35-.78-.81-1.88-1.19-2.88-1.32-.22.37-.17.44.2.17l1.73.8ZM46.85,89.46c.15.16.72.48,1.04.5.27.02.66-.33.92-.6-.27-.39-.65-.64-1.02-.84l.12.96-1.05-.02Z"/>
      <g>
        <path d="M56.78,50.37c.03.49-.19.78-.43,1.06l-.34.97-.42-.33c-.15-.12-.22.23-.83.39-.21.06.11-1.08-.17-1.05l-.53.06-.31-.9-.1.78-.23-.27-.64,1.37c-.29-.82-.24-1.16-.27-1.93-.25.13-.48.39-.75.8l-.2-.84c-.12-.01-.41.06-.43-.03l-.17-.75c-.46.87-.15,1.76.13,2.68-.88-1.13-.71-2.79-.07-3.98.37-.68,1.15-1.15,1.39-1.89.27-.8.06-1.99-.3-2.74l-1.94-3.95c.3.08.43.35.55.61.38.07.84.28.84.93l-.6-.5.63,1.19c.61,1.15,1.04,2.23,1.23,3.57l.39-.58c.09.36.04.72-.08,1.33.53-.42,1.01-.96,1.48-1.6,1.39.29-.83,2.13-.61,4.02.68-.78.94-1.57,1.24-2.46.23-.69.63-1.39.88-2-.28,1.78.61.47-.47,2.69l1.27-.9c.17.98.43,2.07.19,3.04-.09.37-.37.69-.34,1.22Z"/>
        <path d="M39.81,27.03c.05.11.12.32.14.38.02.07-.22.12-.28.15.08.26.25.66.19.86l-.23.79c-.77-2.14-1.14-1.97-1.44-4.58-1.44-1.32-3.43-.92-4.42-1.93,0-.95,1.18-1.65,1.86-1.46,0,.1.38.24.77.41l-.45.12,1.52.75-.61.06c1,.59,1.69,1.46,2.12,2.48l.85,1.99Z"/>
        <path d="M54.84,35.88c1.07,1.95,1.81,4.33,1.13,6.64.22-2.52-.26-5.52-2.18-7.48l-1.61-1.64,1.71-.42c.33-.08.63-.18.98-.28l-.76.41.72,1.98c.09.26.11.53,0,.79Z"/>
        <path d="M36.37,67.82c-1.27-1.72-1.93-3.82-4.45-4.1l-3.21-.36c-1.23-.25-2.45-.55-3.38-1.42,1.21.53,2.31.92,3.6,1.04l3.12.3c2.3.22,3.63,2.53,4.32,4.53Z"/>
        <path d="M58.3,45.79c-.2-.25-.28-.43-.39-.68l-.99,1.1v-.88s-.5-.32-.5-.32l1-1.4,1.29-1.8.43.77c.25.45.28.9,0,1.43l-.75-.22c.28-.52.44-.88.18-1.34-.23.27-.28.58-.28.93v2.41Z"/>
        <path d="M23.37,71.5c-1.22-2.77-3.52-8.68-7.59-8.08,1.64-.75,3.39.39,4.55,1.64,1.45,1.85,2.64,3.93,3.04,6.44Z"/>
        <path d="M37.42,44.14c-.15.92-.71,1.68-1.36,2.09-.47-.97-2-1.52-1.6-2.07.3-.43,1.11-.03,1.5,0,.47.02,1.02-.33,1.46,0Z"/>
        <path d="M34.04,28.54c-.51-.41-1.09-.65-1.77-.79-.23-.27-.56-.59-.98-.86-.16-.35-.38-1.01-.5-1.42l.35-.53c.21.45.55.92.94,1.22l1.2.91c.47.36.89.74,1.17,1.17l-.37-.16c-.06-.02-.03.21-.02.47Z"/>
        <path d="M53.49,43.27l.18-1.22.32.74.36-.19c.08-.04.18.15.32.36l.77-1.04c-.57,1.03-.95,1.75-1.17,2.8-.12-.05-.32-.22-.39-.17l-.51.31c-.06-.51.04-1.06.12-1.6Z"/>
        <path d="M54.96,32.44c.67-.86.75-1.77.7-2.8-.08-1.38-.41-2.73-1.73-3.42l-1.62-.9c2.48.56,3.81,2.16,3.6,4.77.03.9,0,1.85-.94,2.36Z"/>
        <path d="M53.7,39.51c-.97.79-1.91-1.05-2.33-1.78,1.13.1,1.77.8,2.33,1.78Z"/>
        <path d="M48.65,36.45c.61.27,2.73,1.1,2.7,1.81-1.53-1.41-4.48-1.76-5.43-3.34.88.5,1.75,1.09,2.73,1.53Z"/>
        <path d="M24.36,25.31c-.13-1.56-1.48-1.94-1.06-2.45.12-.14.54-.08.67.05.68.7,1.09,1.67.39,2.4Z"/>
        <path d="M44.62,50.15l-.1-2.4c-.05-1.27-.83-2.35-1.13-3.71.94,1.35,1.95,4.29,1.22,6.12Z"/>
        <path d="M42.2,34.66l-.34-.12c.1-1.63,0-3.37,1.02-4.86-.38,1.74-.84,3.28-.68,4.98Z"/>
        <path d="M47.22,31.6c-.64-.12-3.61-1.88-3.45-2.74.8.78,1.56,1.46,2.54,2.02.34.19.68.31.91.72Z"/>
        <path d="M54.1,57.72l.48-.22-.22,1.44c-.63-.61-.97-1.9-.18-2.52.5-.39-.44.96-.09,1.29Z"/>
        <path d="M50.07,18.5c-.38.11-.72.31-1.16.5-.16-.51,3.78-1.69,4.33-1.44l-3.17.94Z"/>
        <path d="M59.18,36.99c.81.43,1.27,3.49.27,4.33.53-1.47.36-2.81-.27-4.33Z"/>
        <path d="M50.64,13.98c-1.32.22-2.45.94-3.65,1.92.72-1.13,2.1-2.07,3.65-1.92Z"/>
        <path d="M51.47,39.61l-1.71-1.24c-.5-.36-.99-.68-1.44-1.11,1.28.41,2.26,1.28,3.14,2.35Z"/>
        <path d="M40.39,35.84c-.38.66-1.38.72-2.51,2,.34-1.08,1.43-1.63,2.51-2Z"/>
        <path d="M47.08,38.71c-.55.27-2.8-2.09-2.31-2.95.39,1.2,1.12,2.1,2.31,2.95Z"/>
        <path d="M24.45,26.21c.94.28,1.83.22,2.45-.55l.15-.67c.29.42.08.91-.35,1.21-.65.45-1.64.8-2.25,0Z"/>
        <path d="M37.95,40.94c-1-.53-1.36-2-.6-2.88-.22,1.12-.05,1.92.6,2.88Z"/>
        <path d="M56.51,22.98c-1.32.26-2.77-.09-3.76-1.13,1.22.66,2.38,1.02,3.76,1.13Z"/>
        <path d="M50.6,42.04c.53,1.16.62,2.72.3,3.92l-.3-3.92Z"/>
        <path d="M51.69,54.46l-.95-1.25c-.44-.57-.87-1.14-.94-1.9l.65,1.16c.47.6,1.05,1.1,1.24,1.99Z"/>
        <path d="M43.04,41.93l-2.51-1.93c1.01.33,1.92,1,2.51,1.93Z"/>
        <path d="M46.73,25.57c.15-1.05.23,1.94.66,2.16-.69-.28-.81-1.12-.7-1.83l.05-.33Z"/>
        <path d="M45.24,43.26l-.59-.51c-.55-.08-1.07-.26-1.45-.66l1.49.4c.23.06.46.31.55.77Z"/>
        <path d="M51.23,33.1c-.99-.33-1.72-.74-2.5-1.2.99.16,1.82.6,2.5,1.2Z"/>
        <path d="M50.71,16.99c-.18-.02-.59.04-.78.03.84-.52,1.83-.22,2.7.19l-1.92-.22Z"/>
        <path d="M49.92,44l-1-2.88c.64.83.97,1.9,1,2.88Z"/>
        <path d="M38.1,47.78c-.39.39-1.24.38-1.75,0-.11-.09-.25-.5-.25-.66.47.66.92.78,2,.66Z"/>
        <path d="M54.39,29.75c-.55-.58-1.1-1.09-1.72-1.59.85.08,1.48.8,1.72,1.59Z"/>
        <path d="M36.3,57.35c-1.04-.76-1.5-2.34-1.03-3.65,0,1.29.22,2.46,1.03,3.65Z"/>
        <path d="M38.2,59.71c-.03-.43-.03-.95.05-1.43l.33-2.02c.07.71.02,1.46-.12,2.21l-.26,1.24Z"/>
      </g>
    </g>
  </g>
</svg>