<?xml version="1.0" encoding="UTF-8"?>
<svg id="_Слой_1" data-name="Слой 1" xmlns="http://www.w3.org/2000/svg" viewBox="0 0 59.37 80.95">
  <path d="M48.54,79.09c.24.86-.43.43-.06,1.86-.89-.86-.08-2.37.06-1.86Z"/>
  <g>
    <path d="M56.57,55.25l-.33.76-.73-.09c.16-.33.32-.93-.03-1.14-.16-.09-.61-.21-.61-.37l.45-.56.21.2s.14-.23.19-.26c.17-.08.64.18.63.37v.68c0,.14-.19.4-.27.58h.19c.05,0,.04-.13.06-.2l.03-.16s.24.13.22.17Z"/>
    <path d="M57.13,56.28l-.31.19.33-.71.48,1.22c-.17,0-.33-.07-.44-.2-.08-.09-.07-.3-.05-.5Z"/>
    <path d="M50.29,78.7l-.13.5c-.14-.45-.21-.79-.25-1.29.28.29.38.58.38.79Z"/>
    <g>
      <path d="M8.17,42.41c.28.22.54.63.33.92-.13.18-.24.34-.33.48-.07.05-.13.08-.16.1s-.14-.11-.16-.16l-.6-1.65c.2.03.29.27.35.51.04-.06.13-.22.21-.22l.35.02Z"/>
      <path d="M8.18,43.81l.83-.59c.17-.12.04-.74-.16-.71s-.44.08-.67-.1l-.5-.37.89.25-.18-.16s-.02-.16.02-.16h.25c.05,0,.19-.03.23-.05s0-.14,0-.19c-.04-.44-.48.59-1.28.05l1.05-.27c.07-.02.3-.03.33.03l.13.25c.12-.37.86.07,1.16.22.32.81-.65,1.04-.76,1.44l1.08-.25c.64-.15,1.3-.14,1.77.35l.83-.66.77.13c-.58.16-1.23.18-1.52.81.02.26.05,1.76.38,1.76.12,0,.43-.01.45-.02,0-.26.05-.45.16-.45l.48.03.02.34c.02.31.63-.68.97-.76l-.11-.23c.15-.2.66-.37.82-.11.05.08-.05.31-.13.32l-.47.04c.11.31.35.63.61.93-.02.11-.19.36-.3.51-.22.31.19.77.52.76.17,0,.46.02.56.12s.19.33.24.49l-.26-.05.72.99c.15-.32-.15-.66-.41-1l.32-.2c.06-.04-.04-.31-.11-.34l-.83-.29c.03-.28.07-.52.15-.85.22.05.38.22.59.45.15-1.14-.57-.72-.85-1.33.4-.1.48-.05.78.25,0,.01.02-.07.04-.18.93-1.12-1.23-1.53-2.06-2.54l-.46-.57c1.28-.25,1.56.39,2.43-.31l-.06.27s.13.08.14.04l.06-.21s.06-.14.08-.18c.02-.05.13.14.13.2l.02.83-.31.03c-.06,0-.1.12-.13.21l.16-.09s.23,0,.2.03l-.14.2-.17.24c-.04.06.15.17.21.16.14-.16.38-.53.37-.73-.06-.89.13-.15-.05-1.4.4-.17.74-.58.66-1.02-.02-.11-.16-.36-.25-.43-.1-.08-.27-.07-.53-.08.14-.35.6-.03.61-.26v-.28c2.24,1.16,1.83-1.39,4.53-.24-1.84.45-1.29-.07-2.48,1.44l-.7.08c-.15.02-.34.08-.38.18-.15.43.53.63.48.99-.02.15-.17.41-.27.58l-.1.18s.05.1.07.14c.05.1.43-.56.76-.54l.49.36c.45-.35.99-.13,1.23.29.16.07.46.23.61.26l.76.17,1.38.12c-.8.61-1.78.49-2.74.53l-1.22.06c-.35.02-.62,0-.96-.03-.15.22-.23.78-.14,1.1.11-.15.22-.29.35-.41l.4-.38.04.59h.62s.53-.02.53-.02l-.66.86c.89-.1,1.51-.67,2.24-.66l-.96.82-.45.4.21.14c.34.22-.49.66-1.49.22-.19,1.52-.02,1.72.87,2.76,1.78.95,2.33.8,4.18.4.55-.12,1.01-.46,1.47-.72l.77-.43c.17-.09.4-.27.54-.34.3-.14.62-.3.91-.5.75-.54,1.48-1.05,2.25-1.52.47-.29.85-.57,1.23-1.01.12-.14.41-.26.53-.38l.84-.82.16-.16s.05.11.08.2c.87-.94,1.7-1.07,2.08-2.27l.19.52c-.16,0-.24,0-.25.03-.02.05-.11.24-.08.18h.43c.2-.02.09-1.04.34-1.38.42.9.13,1.23.46,2.04l.07-1.48c.45.23.13.62.17.95l.2,1.62-.23-.25-.14.62-.12-1.08c-.16.58-.14,1.17.04,1.68.28-.45.68-.92,1.17-1.03,1.01-.23.31-.2,1.13-.83l.62-2.59-.14,1.54s-.08.16-.05.18l.18.16s-.08.13-.1.16.12.08.15.07c.9-.51,1.27.32,1.84-.83.37-.74.7-1.49.7-2.33-.79-.48-.59-.97-.59-1.78,0-2.84.8-3.08.83-4.58,0-.37.28-.7.35-.99.2-.8.05-1.59.63-2.3l-.54-.41c-.07-.71.09-1.41.13-2.12.02-.34-.41-.71-.25-1.16.06-.18-.32-.45-.42-.54,0-.25.02-.67,0-.87,0-.06-.3-.11-.3-.18v-.4c-.08.02-.29.16-.51.32l-.09-.33-.1.19s-.12.08-.2.12l.39.34c-.14.03-.35.1-.45.1l-.86.05s-.08.23-.08.33.14.24.27.44l-1.1.05c-.33.02-.64-.34-.99.1l1.9.22-1.08.13.83.08c-.1.44-.05.08-.72.23-.09.02.02.21.05.37.02.1.08.06.37.18-.33.11-.76.13-1.21.15.98.8,2.57-.5,2.52.24l-.36-.04c-.06,0-.14.17-.2.23l-1.19.1.34.28c.25.69.87,1.55.47,2l-.3-.56.06.96-.2.07-.35-.41.29,1.65-.37-.59c-.05-.08-.38-.07-.41.02s.03.19.1.39l-.29.05c-.24.04-.11-.48-.63-1.12-.26-.32-.53-.67-.42-1.07.12.18.22.45.32.55l.57.64c-.16-.44-.31-.87-.37-1.34l-.27-2.06c-1.27-1.22-.59-.65-.99-1.44-.19-.38-.5-.79-.96-.66l.19.18s.02.04.02.2l-.53-.56c-.47.06-1.73-.94-1.51-1.33l-.85-.52c.61-.39.93.03,1.31.33l.76.41.75.2h-1.09s-.18,0-.18,0c-.04,0,.03.12.05.16.02.04.1-.04.14-.06.45.51,1.79,1.2,2.4,1.36l.37.09-.38-.34.61-.13-.14.18s-.02.12-.02.2c0,.06.13.26.18.22l.28-.24-.09.46.45-.38-.31-.35.56-.4c.48,0,1.1.04,1.54-.13.05-.11.04-.36-.05-.42-.12-.07-.36-.17-.49-.21l.02.28c.03.41-.4-.22-.72.02-.25.19-.49.13-.72.03l-.54.17-.05-.26c-.01-.07-.22.01-.29.06l-.41-.31s-.16.1-.16.1c0,0-.01-.14-.02-.19-.4.01-.82-.09-1.2-.35.97-.24,1.79.2,3.22-.04.61-.1,1.12-.55,1.62-.85l.22-.13c.05-.03.04-.15.07-.31l.76.8c.13.14.22.31.47.43l.66.82c-.09-.44-.43-.95-.77-1.19-.05-.04.14-.24.19-.19.15.15.55.42.79.29l-.23-1.05c.53-1.03-.18-.93-.14-2.06.43.14.66.25,1.12.45l-.53-.57c-.05-.06.04-.32-.03-.34l-.34-.1-.24-.31c.93-.18,1.66.31,2.41.74.29.17.56.31.72.71l-.69-.12.72,1.21-.27.22c-.06.05.19.2.26.25l.73.75.21.34c.06.1.31.12.45.14.28.31.61.72.93,1.02s.7.57.95.94c.09.14.27.34.29.34l.03-.52.63,1.06c-.3-1.75-.72-3.28-1.66-4.63-.04-.05.05-.31.1-.28s.21.15.26.2l.67.84c.08.2.17.59.21.84l.14.93c.07.46.19.87.55,1.17.51-1.19.09-1.35.04-2.59.58.55.23,1.87.66,2.09.08-.99-.26-1.82-.49-2.75-.14-.57-.36-1.07-.63-1.68.54.09.22.66.73.86l-.41-.99c-.56-1.33-.72-1.62-1.69-2.79-.24-.29-.69-.39-.72-.85.64.57,1.32,1,1.86,1.64l1.29,1.54s.1.21.1.25-.07.08-.11.07l-.25-.05.8,1.6.55,1.21.29.62-.08-.45c-.02-.09.12-.23.15-.26-.33-.33-.57-.74-.71-1.18,1.14.41.57.73,1,.9.11.04.44.03.42-.09l-.14-.84c-.71-.56-.05-.71-.45-1.29l-.64.18.06.42c-.16-.21-.36-.35-.64-.5l.15-.24c.04-.06-.17-.19-.19-.25l-.17-.54c-.32-.2-.55-.49-.6-.84l-.32.1.09-.26c.03-.07-.09-.21-.16-.27-.76-.6-.09-1.04-.7-1.17-.32-.07-.55-.14-.84-.24l.17-.26c-.14-.19-.22-.53-.1-.69.48.09,1.01.18,1.41.3l.84.85,1.32,1.29c.29.28.57.59.79.87-.31-.03-.38-.04-.68-.01l.77,1.35c1.8,3.18.07,2.68.8,4.91l.1-1.01.12.32c.02.06.08.15.07.12.11-.33.13-.43.31-.58l-.13-.53c.22.09.35.29.41.49l.28.99.22,2.05.17-1.12s.14-.21.17-.18l.1.11c-.12.37.14.77.58.73v-1.31s.42,1.03.42,1.03c.11.27.21.62.32.95.09,0,.32-.16.35-.27.08-.33-.3-.31-.32-.53,0-.05.1-.19.13-.15l.16.19c.72.88,0,.74.13,1.72.17,0,.34.02.33.09-.02.11-.07.23-.14.23h-.26s-.07-.14-.14-.27l-.02.91-.34-.22.24.89.37.22c.1.06,0,.34-.06.47-.24.66-.33,1.45-.5,2.13-.05.19-.28.51-.35.7l-.1.28c-.02.05-.2-.1-.22-.13.18-.23.31-.53.13-.89l-.48.82c-.09.15-.26.38-.35.51l-.27-.15c-.07-.04-.34.56-.33.33.04-.79.13,0,.05-.91.02-.17.04-.28.03-.38,0-.11-.38-.24-.47-.16-.22.19-.28.56-.19.86l-.14-.32c-.03-.08-.1-.3-.17-.28l-.34.07c.13.11.26.17.25.22l-.06.23-.16-.26s-.11.06-.11.1c-.13.98-.19.14-.24,1.18-.01.29-.14.57.26.69-.49.05-.64.28-.87.54h.23s.15-.03.12,0l-.24.19-.07,1.17c0,.43.85,1.51,1.08,2.09l.06.75.48-.93s-.02-.18-.02-.2c0-.04.06-.08.09-.06l.2.11.33-.42-.1-.94c.34.71.55,1.53.43,2.37-.07.48-.47.92-.74,1.33l-.17-.44-.12.56.23.06s.05.06.02.06l-.24.06c-.17.21-.48.47-.82.58-.18.09-.76,1.3-.51,1.21l-.29.11.26.11-.02.67c0,.06,0,.2.06.21.07.01.31.04.27.04-.09-.14-.17-.24-.15-.27.02-.04.13-.22,0-.01.25.24.62.19.9.09-.05.17.06.47.21.54l1.22.52.17.66.08-.39c.02-.08.16-.08.35-.09.1-.12.11-.13,0,0l-.02.32c0,.06.14.12.16.18l.12.26c.03.06.17-.01.32-.01-.24.39-.52.69-.36,1.04.09.22.01.56-.22.63-.76.25-.21.55-.75.51l-.22.68-.1-.36c-.27.14-1.16,0-1.33-.04-.14-.04-.15-.38-.18-.52l-.28-.03s-.01-.02.03-.06l.14-.24s-.11-.18-.14-.14l-.16.15v-.26c.01-.06.08-.05.22-.14-.09-.07-.34-.2-.39-.28-.16-.94-.01-2.33-.28-3.33l-.34.77c-.12.03-.36.05-.36.14v.46s-.18-.35-.18-.35l-.34.37c.15.25.1.65,0,.91.03.03.13.21.13.29l-.02,1.18s-.03-.02-.14-.11c-.6,1.01.13,1.24-.14,1.92-.02.06-.28.16-.26.22l.09.22.25-.32.08,1.13-.2.14c.48.77,1.23,1.27,2.21,1.51l-.26.34c-.22.29-1.72-.31-2.23-.32.26.36.74.19,1,.65l.1-.13s.06-.02.07,0l.05.14c.27-.04.56-.06.7.23h-1.11c-.06,0-.26-.01-.29.04l-.16.31-.16-.25c-.05-.08-.37.25-.47.26-.35.02-.74.41-.96.83-.15.29-.61.72-.66,1.02,0,.03-.22.12-.22.09s0,.09,0,.12c0,.05.13.05.18.04l.19-.05s.07.1.04.12l-.2.07-.06.59c0,.07-.13.25-.09.31l.16.26c.04.07.24-.12.29-.13.24.33,1.33.06,1.4-.21l.41.17c.09.04.2-.08.41-.25-.01-.13.02-.03.07.17l.78-.05c.2.14.37.18.55.07.09-.05.22-.15.25-.12l.18.19c.21-.05.57-.09.76-.05.03,0,.09.16.1.19.01.05.08-.1.13-.22,0,0,.08.04.11.05.04.01.07-.03.22-.11l.07.6-.19-.15s-.11.04-.18.08c-.2-.11-.62-.24-.83-.12-.96.53-.31-.25-1.81.73l-.15-.46-.1.57-.25-.2s-.14.11-.19.14l-1.23.39.52.4-.31.62c-1.68.45-.17.2-1.37.56-.28.08-.67.36-.86.51l-.07.45c.31-.19.68-.13,1.02.02l1.62.68c2.72,1.13,1.44.3,3.58,2.38.04.04.23-.14.25-.09l.09.28c.11.36.18.65.29,1.1l.1-.31c.07.14.15.31.23.35.1.05.3-.04.46-.1.02.01.06.14.02.17l-.26.14.78.11.15-.27s.57-.28.6-.18l.12.37c.18-1.01.64-.26.72-1.2l.08-.94c-.04-.07-.22-.25-.17-.3s.16-.17.24-.23l.57-.47c.07-.11.21-.36.29-.51l.3-.6.42-.3-.67,1.88-.31.83-.23.7c-.07.2-.18.38-.35.53,0,0,.07.07.1.11.04.04-.16.14-.16.19-.01.16-.08.43-.28.58-.12-.07-.23-.13-.14-.08l-.45.58-.24-.16c-.08-.05.06.51-.04.58l-.32.21c.71.06.77-.76,1.15-.38.06.06-.1.22-.15.31-.58,1.07-.51.54-1.36,1.19l.44.1c.12.19.12.23-.07.11l-.15.32c-.14.04-.34.02-.14-.1.03-.21.02-.27-.06-.18l-.31.87c-.02.06-.06.29-.08.36-.02.07-.15.06-.22.09.03.25-.11.59-.27.59-.02,0-.17-.12-.17-.12,0,0-.03.08-.06.13l-.24.56c-.04.1-.23.25-.37.29-.1.03-.18-.04-.36-.21l-.08.57c.27.1.33.17.1.16-.1.06-.3.17-.27.22l.16.27-.44.67-.12-.14c-.41-.49.15.43-.22.71-.1.08-.27.02-.42-.05-.11.05-.22.46-.12.56.1.11.38.14.57.13-.23.15-.67,1.64-.74,1.32l-.07-.3c-.15-.13-.19-.02-.09.21-.05.24-.14.69-.27.91l-.42.69c-.23-.07-.49-.1-.68,0l-.76.45c-1.1.64-1,.26-1.7,1.1l-.17-.28-.46.47c-.36-.21-.59-.12-.86.24l-.29-.43-.52.76h-.68s-.06.1-.09.14c-.03.05-.16.05-.29.06-.07.09-.16.21-.26.22-.15.03-.3,0-.45-.07l-.23.3-.61-.38c-.06-.04-.2.12-.3.23l-.1-.15s-.14,0-.16,0l.29-1.43c.07-.36.05-.72-.05-1.06l.34-.2c.07-.04-.13-.24-.19-.29l-.15-.12s.38-.38.5-.88l.37-1.56c-.03-.12-.08-.33-.05-.2-.26.11-.26.1-.16.02.53-.57.23-4.11.14-4.88s-.11-1.5-.14-2.26c-.03-.67-.27-1.32-.09-2.01.1-.38-.08-.85-.05-1.17l.06-.67.2-2.04.06-.96c.01-.24.09-.46.13-.72l.25-1.65.44-1.72.1.03s.13.03.17.04c.05,0,.04,0-.1.16l.45,1.11c.06.14-.02.56.02.7.25.06.47-.11.67-.21.23-.11.5-.15.61-.43.53-1.35.28-.79.35-1.88-.31-.5-.57-1.2-.57-1.84l-.48-.5c-.11-.31-.23-.62-.38-.92l.04-.19-.43-.5s0-.28.05-.27l.19.02.02-1.63-.06-.19c-.02-.06.2-.15.19-.09l-.02.29-.03.3c0,.05.1.01.16,0l.19-.06-.26.23s.03.15.07.23c-.1.16-.24.42.03.58l.26-.84c.05-.16.16-.34.34-.46.11-.07.26-.06.46.01l.33-.39c-.59-.18-1.21-.12-1.49-.6l-.31-.54-.15.24s-.16.02-.16-.03l-.02-.22c0-.08.01-.29.03-.38.01-.08.24,0,.34.02.05.05.07.07.04.04l-.12.27.79-.46-.22.67h.09s.62.19.62.19l.27.26c.21.21.56-.59.73-.42-.05.36-.23.46-.49.6l.55-.06-.21.51c.07.14.4.02.54-.15l.74-.93-.05-.13c.04.11.57-.88.68-1.02.24-.31.37-.46.41-.84.15-1.22.21-.65-.11-1.32-.03-.07.17-.24.15-.32l-.12-.7.38-.54c-.18.12-.31.21-.4.25s-.31-.3-.2-.33l.48-.16-.22-.17c-.11-.08,0,.05.03-.4,0-.04-.17.1-.2.08l-.59-.45c.2-.15.32-.03.58.23l.44-1.08c.37-.93.54-2.05.61-3.06l.12-1.77.13.95.24-.94-.69-.45-.08.99c-.02.29.08.77-.23.98-.21.14-.65.15-.96.19.13.95.15,1.85-.42,2.68-.57-.27.36-1.61.08-2.65l-.2.1s-.16-.11-.22-.12c-1.04-.2-.92.29-1.39.07-.21,0-.66.13-.84.23-.59.64-.74.1-2.5.21-.33.02-.63.06-.95.18l.13.61c-.02.52-.53,1.42-.25,1.62-.23.31-.54.74-.7,1.11.72-.16,1.42-.37,1.85.29-.61-.37-1.14-.37-1.75-.16-.85.3-1.46.81-1.82,1.66-.07-.57.37-.85.66-1.3-1.15.09-1.88.93-2.46,1.77l.02-.19s0-.14-.03-.13l-.24.1c-1.38.56-.61,1.25-1.84,1.22.57.33,1.07-.12,1.54-.41l1.6-.99c.08-.05.27-.25.34-.2l.31.2.71.1-.92.47-.74.4c.02-.26.03-.43-.07-.55-.63.21-1.13.63-1.52,1.09-1.07,0-.48.44-1.66.53l-.25.72c1.13.07.82-.65,1.08-.67l.36-.03c-.07.37-.1.58-.11.96.41-.42-.38-.43.84-1.38l.14.26c.07.13.59.11.58.07l-.05-.24.54.33.23-.44-.39-.29c.08,0,.37.02.49,0l.62-.11c-.12.41-.32.64-.61.83l.54.3-.48.08c-.08.01-.07.24,0,.27l.26.1s-.03.11-.09.2c-.03.05-.12,0-.17-.04l-.56-.56-.43.75c.86.41.55-.09,1.06.17.35.18-.98.04-.93.51,0,.07.11.18.18.21.08.03.24-.06.31-.13l.15-.13s.14.11.12.14l-.18.19c-.05.05-.03.18-.05.34l-1.01-.19c-.24.47-.57.82-1.03,1.16.37-.05.72-.27,1.07-.36l.8-.21c.18-.05.6.03.77.09-1.14.13-1.82.26-2.79.73l.13-.18c.27-.37-1.48-.06-1.72.34-.76,1.27-.94,1.15-1.26,2.43.82-.68,1.51-2.16,2.57-2.47,1.04.55.24.05,2-.27.78-.14,1.39-.52,1.86-.08l-.99.09c-.33.03-.62.05-.92.23.38.03.62.05.88.04l.74-.02c-.1.49-.55.31-.87.27l-.55.31c-.1-.24-.15-.4-.23-.47-.24-.18-1.36.32-1.56.86l-.34.92c-.11.31-.24.58-.38.84l.13.09s-.03.16-.06.15l-.17-.04c-.09-.02-.26-.04-.28-.1-.09-.29.85-1.87.34-2.19-.48.12-.81.5-1.11.89l-.27.34c.06.18.12.38.16.58.03.15-.21.39-.37.43l.07-.7-1.09,1.17c.03-.55.11-.96.22-1.45l-1.3.28c-.19.24-.36.85-.65.98l-1.4.63c-.31.14-.58.16-.84.48-.21.27-.52.54-.56.89-.07.65-.42,1.14-.84,1.51l-.12.8.2-.31.1.48c.68.35.9,1.17.9,1.88-.53-.58-.07-1.72-1.65-2.01l-1.2-.22.13-.22s.01-.02-.11-.16c-.01-.18-.05-.12-.13.13-.25-.25-.48-.38-.86-.41l-.36-.54.47-.31c.43.44,1.05.96,1.53.81.31-.09.63-.39.68-.74-.23-.24-.48-.48-.72-.67l-.41-.33-.76-.18-.5.34c-.18.02-.53-.33-.42-.46l.63-.71c-.23-.22-.44-.46-.63-.48-.67-.08-.8.44-1.1.25-.09-.05-.1-.76-.17-.61l.18-.39.11.37c.17-.3.16-.61,0-.98l-.15.11.08.22s-.09.01-.18,0l-.27.38s.14.15.16.15-.07.08-.1.08h-.18s-.39,1.03-.39,1.03l.46.54c.05.11.13.25.03.06l.26-.34c.1-.13-.17-.44-.28-.72l.43.24c.28.16.47.33.67.63.23.36.27.87-.08,1.08-.25-.38-.12-.18-.25-.26-.09-.05.1.35-.02.35l-.19.02-.52.84s.13.2.1.24l-.09.19.77.46.08.79s.19.09.21.03l.16-.38.16.66c.14-.12.32-.17.48-.19l.29-.03c.08,0,.18.15.27.28v-.79s.55.06.55.06c.03,0,.05-.17.08-.18l.1-.04s.05.17.04.2c-.06.19-.08.33.09.11l1.13.65c.65.37-.17,1.28.09,1.37l.4.15-.26.35s-.07-.08-.09-.1l-.03-.16c-.03-.13-.04-.15-.07-.03l-1.17.65,1.09.18c.38.06.95-.36,1.31.02l.53.56c.08.08.16.22.25.38.65-.89-.5-.66.64-2.49.38-.6,1.2-.68,1.2-.68.21-.48-.25-.66.18-1.4.53-.9.18.2.77-1.16.45-.08.83-.52.75-.99-.02-.15-.11-.42-.05-.52s.27-.27.39-.35l.21-.14c.05-.04.17.1.26.16.54-.37-.09-.96.37-1.2l-.07.65.7-1.18c.12,0,.24,0,.1,0l-.07.59s-.07-.08-.11-.13c-.18.38-.46.81-.56,1.21l-.23.92c-.11.44-.34.79-.51,1.22l-1.27,3.18-2.25,4.88c-.63,1.36-1.98,5.34-2.24,6.74-.23,1.27-.41,2.54-.44,3.83l-.05,2.82-.33.55c-.23-1.05-1.42-.07-2.23-.87l-.21.33c-.05.08-.29.04-.4.04l-.16-.56s-.14-.18-.17-.15l-.2.14c-.04-.06,0,0,.09.15.05.05-.22.46-.32.41l-.42-.47c.15-.34.2-.71.04-1.04l-.19-.4.16-.18s-.07-.14-.1-.19c-.13-.23-.48.44-.49.94-.08-.45-.02-.92.11-1.39.11-.05.23-.11.06-.03l-.1-.55-.1-.56s.02-.14.04-.14l.21.05c-.17-.25-.19-.43-.18-.73.05-.83-.46-1.58-.15-1.92-.03-.07-.06-.15-.07-.18-.05-.42-.19-.84-.23-1.25l-.12-1.53c-.09-1.07-.1-.4-.39-1.69-.09-.39-.23-1.01-.33-1.34-.01-.04.11-.16.07-.17l-.26-.08.14-.13s-.06-.16-.08-.23l-.43-1.38c-.02-.06-.05-.28-.06-.34-.02-.07-.12-.04-.31-.06l-.04-1.05-.91-2.17-.49-1.19c-.15-.35-.27-.73-.43-1.07s-.24-.62-.24-1.05c.08-.1.03-.04-.1.13-.45-.81.21-.59-.37-1.22-.25-.27-.33-.76-.44-1.17-.13-.47-.44-.97-.67-1.47l-.29-.63c-.17-.37-.4-.67-.53-1.05l-.52-1.46c-.09-.24-.19-.69-.3-.9l-1.13-.97c-.22-.19-1.89-.22-2.39.18-.12.09-.44.15-.56.23-.41.27-1.08.22-1.5.38-.72.26-1.33.77-2.16.77l-1.35,1.28c-.19-.14-.32-.22-.2-.1.13.7.27,1.26.33,1.88l.15,1.46.05,1.15.08.91c.1,1.09.19,2.14.17,3.21-.3-.84-.68-.84-.95-1.72.35,0,.5.06.74.18v-.67c-.47-.16-1.43.46-1.53.62-.06.1,0,.42.04.55.43.13.96.23,1.3.5.27.22.1.74.16.98l.22.84c.04.16-.04.43-.04.57,0,.35.1.93.06,1.29l-.08.64c-.09.71,0,.51.13,1.62.27,2.28-.74,3.7-.42,5.66.02.14-.06.43-.1.52.18.43.25.94.28,1.42.04.62.13,1.23.24,1.84l.12.69c.16.9.42,1.09.39,1.75,0,.06-.18,0-.21-.05l-.24-.38c-.09.08-.2.18-.12.11l-.49-.87c-.09-1.68-.38-3.28-.63-4.96-.11-.72.27-1.57.49-2.23.61-1.87.14-1.26-.06-2.26-.11-.55-.37-.93-.63-1.4-.2-.37-.03-1.06-.3-1.38-.3-.36-.39-.6-.35-1.09s-.24-1.02-.33-1.49c-.24-1.23-.69-1.79-.73-2.12l-.15-1.29c-.06-.5-.35-.85-.6-1.31-.1-.18-.15-.56-.25-.77l-.32-.71c-1.01-1.43-1.23-2.36-1.56-3.89l-.16-.73-.04-.85c-.05-.9.21-1.76.69-2.54.56-.92.95-2.66,1.7-2.73l.16.65.38-.04s.13-.07.15-.04l.07.17c.03.07.11.32.18.29l.34-.15.1-.78c.41-.47.92-.85,1.48-1.24.14.41-.24.51-.38.74l-.47.76c-.08.13-.13.39-.16.62s.18.45.4.56c-.03.03-.15.13-.16.13.05,0,.04.17.25.06,1.55-.83.51-.27,1.57-.45l-.24-2c-.09.35-.16.74-.31.95-.05.07-.32.2-.38.15l-.27-.24.05.48c.02.2.14-.04.52.04.1.02-.27.4-.7.56l-.35.13c-.27.1-.39-.79.41-1.44.32-.25.46-.73.93-.63l-.24-.33.72.06c.26.77.63,1.5.47,2.36-.27-.34-.41-2.11-.6-2.09l.15,1.22.08.81-.57.25c-.62-.17-1.35.23-1.39.94,0,.08,0,.25-.05.24l-.2-.04c-.05,0,0-.18.02-.23l.23-.58c-.08-.11-.39-.27-.52-.23-1.02.33.22.58-.61,1.35l.29.16s.03.09.03.17v.47c-.07.21-.14.45-.09.65.23-.28.4-.46.73-.7l-.14.31.52.13c-.3.35-.64.62-1.01.79-.19-.18-.23-.2-.13-.05l-.14.34c.12-.79-.61-1.05-.58-1.07l-.29.23c-.67.52.02-.74-.41-.8-1.03.24-.27,1.92-.75,3.1l-.47,1.16c-.08.19.09.6.26.75l1.09.92c.16-.06.38-.34.38-.49,0-.51-.67.03-.43-1.3l.49-.12-.5-.54c.12-.28.37-.54.67-.62l.66,1.2c.15.27.29.46.13.81-.03.07-.01.3.06.32s.26.02.32-.02l.39-.31c-1.22-1-.63-1.89-.67-2.88,0-.23.12-.51.26-.54-.09.28-.16.53-.15.63l1.01-.59c.07-.04.99-.93,1.54-1.01.06,0,.24.25.27.2.03-.06.16-.25.11-.3l-.65-.47.7.07c.2-.49.39-.93.7-1.43l.13.41c.02.07.16.13.29.21-.11.09-1.42.87-.9,1.16.08.04.16,0,.47-.08l-.83.47c-.16.09-.38.44-.42.55.16.19.34.44.46.54.24.41,2.08-.22,1.92-.95-.06-.26-.36-.4-.71-.52l.76-.09c-.33-.24-.65-.23-.92-.11l-.51-.22c.18-.15.46-.36.63-.36h.89s.05.11.05.11c.03.05.07.12.08.09.01-.04.05-.15.07-.19l.08-.14c.07-.13-.34-.45-1-.35-.03-.13.14-.55.31-.63.06-.03.3-.01.31.05v.39c.31.22.62.47.84.89.18-.04.56-.15.76-.22.13-.38.34-.62.76-.59l-.59-.31c.3-.26.59-.32.99-.23.02-.21-.1-.47-.27-.64l-.4.31c-.03-.43-.06-.69-.16-1.11.57.07.22.87.9.75,0-.51-.52-1.23-1.06-1.13-.6.11-.95.49-1.42.95-.59-.49-1.57-.26-1.91.16-.03.03.03.27,0,.25-.36-.16-.37.24-.84.07.51-.19.92-.5,1.19-.95ZM51.45,25.53c.21-.64.03-1.13.13-1.77-.03-.06-.21-.21-.24-.15-.02.05-.07.23-.06.29l.17,1.63ZM45.13,25.12c-.6.4-1.1.78-1.6,1.22.22.05,1.8-1.09,1.6-1.22ZM53.15,29.29c.35-.28.43-.69.48-1.1l.16-1.33c.04-.37.4-.8-.03-1.13l-.14,1.49c-.08.89-.46.6-.47,2.07ZM46.69,27.69l.07-.27c.02-.06-.21-.09-.28-.09l-1.65-.1c-.19-.42.14-.7.44-1.02-.38-.14-.92.35-.86.52l.11.3-.57.39c.31.18.75.34,1.1.27l1.14-.23c.19-.04.41.09.48.25ZM39.3,27.91c-.24-.36-.64-.41-.99-.4l.54.53.45-.13ZM47.07,28.08c-.05-.05-.17-.17-.13-.14h-.42c-.23.5-.73.9-1.23,1.18l.19.57c1.23-.19.41-.85,1.6-1.61ZM56.29,28.43c-.16.07-.26.21-.3.36l-.25.84c.17.5.65-1.04.55-1.2ZM45.67,33.34l-.09,1.21c-.07.93-.03,1.81,0,2.83.55-.55.24-1.01.71-1.56-.42-.66.53-.76.56-1.47-.38-.42-.42-.9-.29-1.41l-.22-.72.36-.73c.33-.3.66-.69.38-1.13-.1-.16-.5-.19-.57-.06l.29.5-1.25-.51c-.25-.1-.7-.26-.81.15-.14.5-.09,1.1-.12,1.63l-.17,3.08c-.02.46.01.88.04,1.32.05.72.14.92.9,1.44l-.48-.98c.07-.35.15-.8.01-1.11-.28-.62.17-.98.3-1.52.01-.04.14-1.08,0-1.06l-.21.04c.46-.47.48-1.16.2-1.76l.19-.07s.03-.1,0-.11l-.24-.07.07-.69c0-.07.2-.27.23-.21.4.8.25,1.99.17,2.96ZM50.18,43.74l.07.8c.46-.07-.14-.7.22-1.07.09-.09.38-.06.5-.02l-.19.22s.11.05.14.04l.16-.05c.26-.08.55-.24.73-.46.54.3,1.3-.5,1.46-.97l.31-.89-.36.35c.27-1.11-.09-1.35.52-1.89l-.4-1.23h-.68s-.04.51-.04.51c.26.01.31.04.14.12l-.44.46c-.1.1.01.35.06.51,0,.09-.07.32-.02.38l.22.24-.06-.34s.18-.02.19-.06l.09-.28s.16.07.14.06l-.22.85-.76-.18c-.06-.01-.18-.18-.21-.14l-.13.2c-.13.2-.16.39-.18.66-.03.29-.47.6-.66.86l-.52.73-.09.6ZM16.21,42.42c-.51-.3-.87-.35-1.4-.24l.64.56c.24-.03.57-.2.76-.32ZM35.6,48.43l.12-.28.4.64c.15-.29.24-.46.41-.63l.51-.53c-.09-.92.79-.26.71-1.18l.3-.27-.4-.32-.36.45c.11.09.27.18.23.21l-.23.14s-.06.1-.02.11l.25.08c-.54.24-.82.48-.99,1.14l-.2-.39-.29.03c-.07,0-.07-.16-.16-.43l-.46.53.18.69ZM14.04,46.63c0-.08-.03-.28-.06-.37-.46-.13-1.46-.11-1.78.14-.11.08-.15.41-.09.56.34.13,1.93.1,1.93-.33ZM11.4,47.33c.17-.08.37-.12.44-.22s0-.38-.07-.48-.36-.16-.48-.11l-1.64.63c-.06.13-.07.41.02.48.48.39,1.11-.02,1.72-.3ZM15.28,47.73c-.05-.03.14-.2.1-.25l-.17-.23-.15-.19s.09-.13.18-.23l-.61-.19c-.1-.03-.32.17-.33.27-.07.54,1.06,1.2,1.13,1.13.03-.03.11-.13.07-.16l-.23-.15ZM16.15,47.92c.03-.06-.09-.22-.13-.18-.27.26-.28.42-.36.6-.04.1.2.28.29.33.01-.2.1-.53.21-.75ZM5.81,49.8c.38-.18.57-.31.86-.52.33-.25.57-.87.19-1.2-.46-.39-1.65.63-1.48,1.08.27-.44.5-.85,1.16-.86-.25,1.17-.7.8-.73,1.5ZM1.41,50.39c.18-.41.39-.85.19-1.34-.3.34-.29.85-.19,1.34ZM5.21,49.86c.05.55.27.93.66,1.26,0-.71-.24-1.18-.68-1.69-.15.22-.25.4-.32.53l.34-.1ZM34.03,51.24l.36-.62c-.45-.07-.89-.08-1.36.17.24.33.69.46.99.45ZM23.77,51.35c.05-.08-.21-.29-.29-.22-.25.26-.44.79-.49,1.17.16-.08.8-.98.77-.95ZM24.9,51.89c0-.15-.31-.23-.72-.52l-.19-.13c-.23-.16.41.8.25,1.27l.55.24c-.3-.55.13-.46.11-.86ZM5.31,55.98c.06.07.38.07.39-.02,0-.07,0-.22-.02-.3l-.24-.82c.34.11.46.27.62.5l.33-.16c.06-.03,0-.23,0-.31l-.12-1.74-.47-.11c.56-.5.29-.63.08-1.34l-.1.52c-1.45.9-1.28.25-1.83,2.03l.35.53c.46-.08.79-.76,1.21-.74l-1.01.94.8,1.01ZM28.76,55.05l.11-.71c1.34-1.06.72-.67,1.6-1.81.02-.04-.12-.25-.22-.24-.59.02-.61.49-.95.48l-1.88-.02c-.17.12-.16.08-.02-.14-.31-.17-.72-.19-1.02-.07,0-.04-.16-.28-.24-.29l-.77-.14c-.11.43.29.97.19.98.05,0,.23-.06.27-.03l.57.43c.06.05.12.17.17.15.05-.02.18-.07.17-.12l-.06-.2-.06-.2s.01,0,.09.07l.42.41-.27.15-.06.6c.09-.09.34-.13.4-.02.06.12.15.31.2.41.33.27.74.58.79,1.07.37-.12.5-.39.56-.76ZM3.35,55.5c.34-.42.39-.66.32-1.09l-.64-.02.09.63c.03.17.09.32.23.48ZM4.66,56.94c.04-.1-.2-.44-.22-.43l-.16.14s-.09,0-.08-.04l.04-.21c.05-.25-.17-.59-.46-.68l.32,1.33.11.49c.14-.16.37-.43.44-.61ZM32.29,58.94c-.12-.46-.07-.61.23-.91.33-.33,1.36-1.92,1.03-2.26-.03-.03-.11,0-.14.04-.28.32,0,.65-.4,1.34-.1.18-.53.3-.67.43-.41.35-.31,1.01-.04,1.36ZM4.55,58.37c.17-.41.23-.73.19-1.1-.4.21-.64.76-.19,1.1ZM26.4,58.91l-.2-.52c-.04-.1-.34-.1-.41-.02s-.16.38-.1.47c.08.13.42.11.71.07ZM4.87,59.31l-.19.13s.03.11.07.12.24,0,.27-.03l.6-.77c-.26-.2-.5-.36-.69-.32-.15.03-.33.29-.37.47l.54-.33c-.03.3-.24.52-.5.65l.28.08ZM30.59,62.65c.29-.21.47-.52.6-.81l.49-1.04c.22-.48.24-1.03.17-1.56l-.53.44-.47-.37.78-.75c-.9.26-1.32,1.12-1.28,1.96.12-.24.17-.31.18-.13.14.29.1.43.02.63l.21.41.36-.27c.14.37-1.15.59-.53,1.49ZM25.51,59.47c0-.16.02-.46.02-.48l-.61.36c-.06.03-.08.2-.05.26.14.22.63-.03.64-.14ZM29.1,61.63l.25-.45-.3.13c-.07.03-.25-.08-.43-.15-.16.27,0,.68.14,1.02.03.11,0,.28.08.3l.35.1c.07.02.28.04.36.05s.09-.26.04-.32c-.19-.23-.59-.49-.49-.68ZM50.19,67.97l.42.07c.02-.16.04-.33.11-.31l.28.09c.1.03.4,0,.43.1l.1.45c.06.26.14.5.25.76l.36-.86-.44.03.5-.3s.08-1.27.09-1.23l-.05-.6c-.09-.99.45-.45.28-1.17l.51-.1c-.07-.15-.11-.28-.05-.38.07-.1.3-.14.43-.13l-.26-.73s-.25-.19-.19-.15c.1-.3-.24-.46-.41-.57l-.13.42c-.09-.35-.15-.56-.25-.61l-.07.48-.3-.79-.21.57v-.59c-.23.08-.41-.16-.59-.23l-1.25-.47-.83-.24c-.08-.02-.24.05-.4.12l.78.47c.26.16.47.36.83.21l.18.2h-1.03c-.64.02-.68-.96-.78-.67l-.07.2c-.02.06-.22-.07-.21-.14l.07-.36c-.31.11-.64-.05-.85-.3-.23.46-.24.84.02,1.2l.39-.32c-.06.22.38.85.48.77l.32-.25c-.02-.06.07.17.09.23.02.05-.12.18-.14.24l-.3,1.23c-.4.02-.62.2-.67.59-.11.78-.56.25-.4,1.53.36-.2.58-.44.85-.77.05.09.09.19.06.24l-.12.2,1.41.08-1.15.44c-.21-.2-.36-.21-.66-.13s-.74.39-.64.77c.04.16.19.46.25.63-.47.68.25.54.05,1.62-.04.21,0,.61-.07.79-.2.49-.14.96.39,1.28,1.31.79,1.49.42,1.58,1.16.13-.06.29-.16.34-.11l.23.26.16.17s.06-.19.1-.23c.46-.45-.07-.95.2-1.05.03-.01.09-.03.08,0l-.07.21s.01.23.06.21l.18-.07s-.04-.14-.04-.17v-.65c-.01-.56-.68-.42-.66-1.15-.13.08-.22.13-.26.09-.71-.75.14-.97.14-1.99l.21.2v-.42c0-.08.28-.07.37-.06ZM51.21,70.25l-.07-.45c-.24.02-.56,0-.82-.02-.11.46-.04.94.43,1.14.16-.2.39-.49.46-.66ZM48.05,72.08l-1.02-.5.23,1.06.79-.56ZM48.25,74.9c.43-.2.98-.62,1.26-1.07-.02-.12-.13-.34-.05-.4l.31-.25-1.24-.63-.89.13c-.11.46-.02,1.1.36,1.31l.35-.33c.06-.06.26.11.37.2l-.59.39-.07.36c-.01.06.12.15.2.29Z"/>
      <g>
        <path d="M22.23,27.64l-.57.28.12.19s-.15.13-.29.22c0,.01-.07-.18-.15-.39l-.04.4c-.3-.01-.59-.22-.74-.51l-.28-.32.21.04s.1-.13.14-.17l.58-.53.16.32.18-.43.43-.22c1.92-.96.98-.43,2.41-.35l-.07-.44c-.02-.11.24-.21.43-.3.05.05-.03-.03-.13-.13l.76-.28c.24.22.51.14.86.14l-.57.35-.07-.26-.51.12-.19.04s.02.19.06.17l.19-.09c.06-.03.22-.08.29-.1s.04.2.03.33l.95-.28c.06-.02.14-.27.2-.27l.29.02c.31-.23.55-.13.91-.12.64.02,1.31-.25,1.97.03.26.11.46.11.86.12l-.1.45c-.46,0-.97-.12-1.39-.09-.95.07-1.91-.05-2.84.15-1.05.23-1.92.95-2.87,1.4-.62.3-.73.57-1.23.52Z"/>
        <path d="M31.58,39.6c-.1-.05-.31-.4-.3-.55,0-.05.15-.26.19-.22l.18.18.2-.67c.2.06.35.11.41.06.07-.07.09-.29.11-.44l.35-.03c.08,0,.14-.16.26-.32l.12.22.19-.15s.09.12.16.26l.1-.3c.02-.06-.12-.09-.26-.16l.45-.19.4-.7c.13-.23.37-.37.6-.41v-.65s.09-.13.11-.1l.21.21-.05-.27c-.01-.06.11-.15.17-.22l.41-.5c.25-.57.23-.85.77-.84.03,0,.1,0,.08-.03l-.12-.21c.36-.38.67-.9,1.18-1.37.15.27.3.77.17.99-.65,1.09.24,1.19-.15,2.07l.04.68-.2-.51-.09.34c-.02.08-.22.09-.37.12l.04.62-.38-.53-.53.11.03.25c0,.06-.18.09-.25.11l-.43.39-.14-.41-.05.44c-.01.1-.23.14-.4.22l.32.07c-.33.19-.68.38-.97.62-.53.43-.83.88-1.31.95l-.55.35c-.09.02-.35-.06-.39.02l-.31.51Z"/>
        <path d="M24.67,32.31l-.63.69.15-.68-.63.46.36-.68-.83.56.53-1.22-.35.36.13-.44-.61-.19c-.07-.09.14-.29.26-.29.12,0,.35.08.45.17,1.2,1.13,2.71.71,3.71-.28.13-.05.36-.12.48-.23l1.24-1.18c-.1.38-.34.64-.54.92.25.64.04,1.34-.05,1.24l.14.16-.97.44-.26.05c-.14.02-.02.11-.25.55-.03.06-.18-.02-.31-.1l-.61.56c0-.19,0-.31-.05-.51l-.5.81c.08-.46.15-.69.16-1.12l-.61.86-.21-.51-.23.14.03-.54Z"/>
        <path d="M21.84,29.77c-.02.26-.08.48-.22.55-.19.1-.48.15-.58.1,0-.29-.01-.54.02-.68l.15-.55.36-.7c1.12-.38,2.24-.68,3.43-.84l.06.45c-.28.14-.72.36-1.05.41-.51.08-.75.08-.98.59l-1.2.66Z"/>
        <path d="M38.42,33.04l-.59.05.19-2.18c.36.72.33,1.41.41,2.13Z"/>
        <path d="M13.29,18.59c-.15.28-.29.47-.49.68-.04-.28.07-.42.17-.66l.35-.8h.85s-.54.15-.54.15l-.33.62Z"/>
        <path d="M13.1,20.1c0-.56.02-1.09.46-1.51l-.46,1.51Z"/>
      </g>
      <g>
        <g>
          <path d="M44.97,46.46l.18-.53-.19.02s-.13-.09-.1-.12l.18-.17.31.06c.07.01.17-.22.2-.3l.72-.23c0-.23.01-.39.15-.42.27-.07.38-.05.47.17l.07-.4c-1.3-.83-1.29.23-2.68-.13-.03,0-.09.12-.09.16,0,.05-.15-.03-.15-.08v-.37s.56.1.56.1c.21-.22.29-.54.33-.9.17.23.16.53-.04.8l.45-.08.72-1.04-.48,1.09.61-.08c.16-.02.42-.08.57-.11l1.07.31c.26-.39.73-.6,1.2-.55-.15.65-.22-.54-1.24,1.02l-.16-.14c0,.42-1.08.74-1.16.75.21.32-.19,1-.49,1.02l-.76.04s.04.17,0,.21l-.28.29c.05.1-.1-.05-.08-.1l.11-.29Z"/>
          <path d="M44.53,42.85l-.6.11c.19-.25.37-.42.56-.48l.94-.29c-.55-.12-.9.12-1.44.19.37-.82,1.31-.22,1.39-.36l.13-.22.23.02c.07,0,.06.16.09.29l.15-.15s.1.12.19.23c.17.16.56-.13.72-.37.22-.32.98-.61,1.23-.29.2.25.17.62.61.51l-.1.75-.93-.17-.61-.7-.75.74c0-.1.02-.24-.04-.27s-.25-.09-.22-.08c-.12.21-.22.38-.36.54-.09.1-.29.04-.5.03l-.67-.05Z"/>
          <path d="M36.45,52.7v-.43c.01-.08.39-.08.34-.04l-.18.12s.02.17.05.16l.2-.07c1.85-.7,1.41-1.57,2.29-1.82.11-.17.27-.56.47-.49l-.15.35c-.02.06.09.14.12.21l.26.59-.79.48c-.33.2-.88.32-1.32.3-.15.11-.43.34-.63.41l-.67.23Z"/>
          <path d="M42.3,44.21c.06-.18.34-.27.6-.42-.2-.04-.4,0-.7.12l-.1-.31-1.23.53c.23-.65.91-.92,1.53-.71l-.23.31c.18.12.3-.05.32-.25.6-.08,1.35-.16,1.95.2l-2.15.54Z"/>
          <path d="M43.41,47.48c.13.5.48.32.77.11l.46.33.21.02c.05,0,.08.24.02.24s-.26,0-.3-.03c-.91-.54-.88,0-1.26-.39-.07-.07-.04-.24.02-.38.03,0-.18-.1-.14-.13.05-.03.26-.19.32-.17l.76.27.75-.22c-.09.15-.23.18-.43.23l.09.09s.07.08.05.09c-.04.01-.18.05-.23.04l-1.08-.1Z"/>
          <path d="M42.41,46.67c-.34-.09-.09-.89-.69-.86l-1.18.06c.19-.29.57-.23.76-.26.08-.01.29-.21.34-.15l.24.29c.09.1.39-.02.51-.11.11-.08.15-.29.25-.54.31.38-.42.77-.1.91l.36.16-.12.59-.37-.09Z"/>
          <path d="M45.05,53.78c-.26.11-1.54.22-1.8-.11l.65-.28c.13.22.16.33.27.36.22.06.39-.18.49-.34.25-.4.66-.89.27-1.33-1.03-.24-2.68.8-3.62.28l1-.12c0-.54.37-.75.06-1.21-.04-.06-.1-.11-.09-.13l.12-.22c-.37-.07-.79-.11-1.23-.15.37-.24.94-.15,1.28.09l.28.62c-.12.31-.24.72-.25.97,1.08.05.75-.25,1.43-.27h.35c.07,0,.06-.23.08-.36.31.03.8.36.85.74.02.17,0,.52-.02.68l-.61.68.47.1Z"/>
          <path d="M41.49,45.09c-.02.05-.18.2-.23.16l-.24-.21-.16.22c-.04.05-.23.01-.25-.04l-.21-.53c-.02-.06.06-.28.12-.28.08,0,.11.04.22.17.15.24.39.36.74.52Z"/>
          <path d="M42.49,43.15c-.22.05-.53.03-.78-.06-.08-.32,1.34-.5,1.57-.13l-.79.19Z"/>
          <path d="M42.26,42.63l-.66.07c.4-.44,1.2-.63,1.82-.14l-1.16.07Z"/>
          <path d="M39.95,47.81c.29-.55.43.09,1.51.08-.49.29-1.01.07-1.51-.08Z"/>
          <path d="M40.11,52.56c-.46.38-1.06.35-1.5-.03.16-.09.4-.06.61,0l.88.02Z"/>
          <path d="M42.13,47.13l-.17.34c.09-.69-.54-.4-.22-1.16.08.26.09.32.18.12l.21.71Z"/>
          <path d="M43.98,45.17l-.64.32-.58-.67c.55-.02.25.41,1.21.35Z"/>
        </g>
        <g>
          <path d="M6.83,39.23l-.22.32-.07-.25s-.03-.04-.05-.02l-.14.13s-.2.16-.16.2l.2.21-1.18.17c-.04-.07-.05-.19-.11-.2l-.3-.06c.79-.45.05-.5.82-.93.33-.19.54-.44.78-.73-.01.3-.31.76-.45.99-.04.07.12.28.18.24l.29-.23c.05-.04.18-.15.22-.2.04-.04-.18-.19-.15-.24l.24-.5c.3.02.22.4.26.64.03.19.05.37.05.61-.11.23-.13.17-.2-.14Z"/>
          <path d="M10.59,40.88c-1.22-.16-1.45.22-1.62-.25l-1.6.29c-.17.03-.48-.15-.65-.24-.3.03-.57.39-.77.71-.19-.31.07-.57.36-.74.79-.44.13.34,1.91-.04.56-.12.96-.35,1.43-.69v.41s.34-.1.34-.1c.07-.02.08.25.15.29l.73.38c.11.34.05.87-.09,1.09l-1.05-.43c.05-.07.27-.36.42-.39s.43.08.57.14l.08-.23c.02-.06-.16-.19-.22-.2Z"/>
          <path d="M15.72,43.86l-.56-.11c-.12.42-.66.64-1.1.71l.18-.28c.05-.07-.13-.26-.17-.38.41-.46,1.51-.51,1.98,0,.22.24.35.47.65.7-.25.25-.3-.09-.8-.24l-.21-.06s0-.18.02-.34Z"/>
          <path d="M11.07,44.39c0,.14.07.43.01.56-.08.17-.26.29-.46.32.08-.49.08-.71-.34-1.02.17-.31.4-.5.84-.72l-.04.87Z"/>
          <path d="M5.85,47.2c.13-.27.42-.42.71-.55l-.21-.07c-.25-.08.13-.78.53-.94.16.15.24.54.14.68l-.32.43-.84.45Z"/>
          <path d="M7.81,40.51c-.04.11-.35.12-.43.06-.09-.07-.3-.33-.24-.43l.45-.68c.04-.05.21-.14.25-.09.14.15.08.79-.03,1.14Z"/>
          <path d="M4.22,42.41l-.39.81c.28-1.58.76-.44,1.12-1.29-.13-.02-.35-.02-.33-.06l.11-.2c.18-.32.37-.6.58-.9l.09-.27c.02-.06.25-.1.27-.09-.17.24-.22.43,0,.73l-.71.63.18.22-.57.63-.34-.21Z"/>
          <path d="M13.39,44.73l-.19-.47c-.08.03-.33.12-.39.02-.07-.11-.12-.36-.08-.47.06-.18.25-.34.47-.29.16.04.19.26.19.48v.73Z"/>
          <path d="M9.56,39.31l-.38-.3c-.26.09-.74.11-.87-.15.09-.14.32-.29.44-.29h.76s.06.74.06.74Z"/>
          <path d="M16.8,41.57c-.39-.48-.05-.93.3-1.11v-.32c0-.06.22-.09.25-.03.19.27-.04.53-.02.53l-.25.05-.28.88Z"/>
          <path d="M13.13,41.01c.12.16.06.43,0,.69-.07.29-.67.32-.86.11-.03-.04-.06-.2-.1-.21h-.25s-.04-.85-.04-.85c0-.07.05-.23.08-.29.04-.07.25.08.31.14l.22.2c.07.06-.34.38-.2.72.04.09.21.13.43.2-.03-.26.06-.6.42-.71Z"/>
          <path d="M16.38,40.9c-1.01-.36-.66-.75-1.05-.44-.49.39.91.38.94.87-.51-.13-.94-.37-1.37-.7.64-.49.85-.33,1.76-.27l-.28.53Z"/>
          <path d="M13.32,40.25c.18.02-.16.34-.11.41l.14.21c-.06.11-.51-.12-.53-.28-.05-.38.26-.75.49-.94l-.17.58.19.02Z"/>
          <path d="M10.33,43.1c.1-.65.83.07,1.03-.68.15-.06.21-.1.21-.05-.08.65-.41.6-1.24.73Z"/>
          <path d="M12.01,36.89c-.54-.18-.94-.14-1.52.15.2-.58,1.09-.62,1.52-.15Z"/>
          <path d="M8.07,36.68c-.6.21-1.08.34-1.51.76.17-.65.88-.83,1.51-.76Z"/>
          <path d="M9.39,44.42c.05.26-.49.5-.63.3-.06-.08.09-.4.19-.38l.45.08Z"/>
          <path d="M6.29,45.94l-.41.54c-.4-.32.06-.73.27-.79.05-.01.17.21.14.25Z"/>
        </g>
      </g>
    </g>
    <g>
      <path d="M54.78,52.2c-.61.33-1.35-.29-1.57-.9l-.15.2s-.07.02-.1.03c-.04.01.02-.2,0-.24l-.5-1.32c-.06-.15.23-.46.34-.57-.16-.28-.29-.59-.07-.8.03.24.08.69.26.75l.55.16c.66-.01,1.17-.29,1.7-.18.22-.34.59-.75.94-1l-.11.77.73-.29.19-.25c.06-.08.35-.05.42.05l-.71.56c-.07.06-.01.3.02.4l.66-.6.22.37.21-.04c.05-.01.01.27-.03.3-1.53,1.01-1.55,1.81-3.02,2.61Z"/>
      <path d="M42.13,33.1l-.46,1.5-.61-.05c-.06.33-.14.5-.28.75l-.14.75-.13-1.22c.3-.13.38-.52.37-.83l-.24.03c-.45.06.58-1.37.65-1.46.49-.6.66-1.15.61-1.93-.15-2.31-1.11-2.31-.8-2.73.2-.26,1-.17,1.35-.1.43.09.4.75.31,1.02-.09-.25-.39-.71-.61-.66s-.38.07-.52.07l.43.8c-.09.08-.15.12-.15.13s.05.12.07.15c.02.04.12-.11.17-.18.08.83.37.65.37,1.39l-.39-.49v1.71c-.01.48.18.81.02,1.33Z"/>
      <path d="M54.88,44.51c.11.14.18.32.17.52l-.56-.75c-.24-.33-.44-.74-.53-1.16.77.92.17.45.92,1.39Z"/>
      <path d="M41.09,39.16l-.46-1.11.44-.29.11.41c-.07.15-.15.32-.18.41-.04.11.16.29.1.57Z"/>
      <path d="M38.29,33.16c.13-.29.19,2.19.04,1.81-.16-.64-.18-1.18-.04-1.81Z"/>
      <g>
        <path d="M11.17,39.43h-.7c.29-.38.61.02,1.04-.21.04-.02.05-.16,0-.18l-.31-.15c.14-.25.54-.28.87-.28.19,0,.53-.15.7-.17l.61-.05.31.31c.17-.23.37-.45.55-.62-.21-.05-.6-.14-.77-.2-.12-.29-.23-.63-.44-.74-.24-.12-.54-.11-.86-.11l.33-.19c-.44-.53-.62-1.08-.87-1.67-.19-.44-.55-.81-.67-1.31l1.02,1.22-.05-1.27c-.08-.09-.25-.29-.21-.4.5-1.11-.04-.94.72-1.24l-.72-.25c-.75-.27-1.42-.1-2.17-.11-.82,0-.83-.56-2.75.42-.29.15-.77.33-1.06.1-.47-.37.43-1.2.41-1.91,0-.11-.42-.13-.43-.01-.04.64-.38,1.23-.58,1.83l-.35,1.05c-.83,2.5-.35,1.34-.27,3.99-.44-2.13-.54-2.18.14-4.11l.45-1.28c-.48-.2-1.51-1.28-.89-1.68-.32-.25-.42-.71-.13-1.01.21-.22.37-.6.52-.93-.86,0-.24-.11-1.1-.3-.36-.08-.62-.53-.59-.96l.43.41s.18.11.22.13-.08.09-.15.18c.27.14.53.23.88.3l-.24-.28.73.1c.47.06-.29-.97.91-1.45.37-1.23,1.09-1.61.46-2.74-.53-.95-.29-1.69-.05-2.71.13-.56.16-1.13.24-1.75l.53-.89c-.57-.23-.56-1.87.15-2.11l-.07.63-.05,1.47c.44-.34.95-.67,1.08-1.32l-.57.5c-.19-.18-.11-.07-.13,0l-.08.36c-.1-.38-.18-.9-.03-1.35.12-.35.65-.65,1.01-.82.51-.23,1.09-.25,1.67-.35l-.62-1.48c-.16-.39-.24-.83-.1-1.23l.42,1.56c.17.62.61,1.18.98,1.7l.39.54c.31-.26.88-.37,1.35-.13l-.11-.53c.83.47,1.51,1.23,2.54,1.27l-1.2-.78.06-.25s.06-.13.09-.09l.15.24.16-.25c.03-.05.17,0,.26.03l.16.05c.14.04-.14-.37-.09-.39l.25-.09-.31-.14c-.18-.08.27-.42.17-.52l-.15-.16c.11-.06.27-.18.32-.13l.28.27c.11-.37.13-.89.02-1.3-.77.22-.91-.61-1.22-1.23l.55-.33.63,1.1c.24.43.49.83.78,1.18-.04.11-.09.27-.08.36,0,.14.22.36.34.18l.43.44-.58.19.51.32c-.36.04-.44.04-.74.2l.58.32c-.07.06-.2.19-.21.3s.08.36.11.39c-.83.02-1.04.54-1.81.1l-.32.45-.16-.38-.09.25s-.15-.04-.23-.07c-.06-.02-.24,0-.27.07-.03.08.04.21.13.36l-.63.68c-.2.22-.06.79-.08,1.09-.05,1.04.2.97.22,2.55l.04,2.4c.02,1.02.17,2,.74,2.88.53.81.09.37.49.9.04.05.24,0,.24-.07v-.37c1.07.39,1.77.57,2.57,1.67l.53.74-.5-.23c-.55-.17-1.05-.41-1.56-.6l-1.09-.39c-.02.27-.01.52-.09.79-.34,1.19.19,1.76.31,1.66l-.19.16c.3.13.81.36,1.18.28,1.37-.3,1.13-.66,2.09-.85.14.14,0,.38-.14.52-.35.36-.64.85-1.03,1.1-.29.18-.5.31-.53.74-.03-.04-.09-.14-.13-.14h-.22c.11-.13.18-.25.13-.48l-.29.5s-.16.14-.21.18-.07-.1-.1-.25l-.5.48c-.11-.14-.22-.36-.32-.59-.04,1.28.41,3.89,1.54,4.73.58-.17,1.07.03,1.35.54-.91-.3-2.28-.15-3.11.14-.26.11-.04.68.1.85l.12.15s.18.1.19.04l.06-.28.08-.38c.02-.07.21-.1.29-.1-.08.14-.22.51-.08.55.16.03.49,0,.51-.1l.1-.49.51.26c.22.11.37.26.67.53l.02-.88.3.16s-.15.12-.18.15l.3,1.07c-.39-.62-1.54-.67-2.02-.52.67.11,1.21.19,1.76.53l-1.55.13c-.1,0-.42,0-.43-.09l-.02-.46s-.2.01-.28.02c-.09,0-.13.22-.15.33l-.1.65c-.07.47.14.79.57.93-1.43,0-.09-1.66-.91-2.18-.07-.03-.19-.05-.2-.11l-.06-.38-.25.45c-.31-.21-.56-.3-.89-.31h-.33c-.07,0-.13.23-.19.27l-.64.4c.27.03.49.09.75.22-.21-.02-.61-.08-.81.06-.18.12-.03.57.1.77l-.22.03c-.07,0-.08-.32-.14-.27-.04.03-.17.12-.2.15-.05.03-.14-.11-.19-.17l-.55-.55c.2-.14.43-.26.52-.17.1.09.23.33.35.55.01-.15,0-.4-.03-.61l.24.06c.06.01.12-.28.06-.27ZM10.75,18.59l-.4-.8-.03,1.08s.27.05.3,0l.14-.28ZM10.09,26.28c-.05.14-.29.4-.24.51l.19.46.21-.5c.05.64,0,1.2.3,1.73l-.16-1.1c.27-.97.31-1.93.24-2.92-.03-.38-.17-.64-.3-.98-.14-.37.16-.96-.06-1.36s-.3-.83-.25-1.2l-.3.25-.08-.75.3.28c.2-.39.46-.93.61-1.34-.44.04-.76-.77-.84-.37-.07.35.39.66.11.81-.41.08-.76.28-.79.55-.13,1.27.81.15.69,1.93l-.2-.24s-.14.19-.2.19c-.19-.03-.62,0-.75.12l.13-.44c-.2-.04-.37-.08-.41,0-.21.41.48.15-.15,1.43.7.38.28-.69,1.76-.16.32,1.18.99,2.32.35,3.55l.04-1.05-.22.63ZM7.59,29.99c.25.34.38.36.78.52l-.52.36,1.32-.02c.13-.63.46-1.14.81-1.58l.24-.87c.02-.14-.09-.48-.21-.56-.1-.08-.43.06-.51.11-.13-.56-.92-.89-1.1-.8-.11.06-.08,1.05.17,1.03.12-.12.34-.36.48-.33.18.04.48.24.58.47l-.83-.26.46.73c.17.26.31.71.09.92-.62.02-1.16.05-1.75.28ZM9.71,31.59l.36-.71c.43-.64.58-1.44.47-2.21-.17,1.17-.63,1.9-.83,2.92Z"/>
        <path d="M10.94,6.2l-.35,1.56c-.03-.56,0-1.01.02-1.51l-.41,1.35c-.22-.57.21-.92.23-1.52l-.31.64c-.53.73-.77,1.54-1.04,2.44-.22-.06.67-2.51.72-2.62l.77-1.58c.09-.04.24-.13.29-.18,1.53-1.88,1.34-.82,1.86-1.4.07-.08.16-.21.2-.19l.25.14.56-.28s.06-.14.07-.18c.02-.05.15-.08.21-.09l-.41,1.35c-.02.07-.05.29-.11.3l-.23.02c-.05.25-.1.43-.22.59l-.51.7.04.31c.01.09-.27.18-.35.25-.16.36-.1.9-.09,1.38-.42-.95-.16-1.44-.04-2.5l-.4-.24-.32,1.25-.1.54-.33-.51Z"/>
        <path d="M35.55,19.73l-.04-.46-1.93.58c-.19.06-.41-.23-.51-.43l-.15.17c-.05.05-.2-.11-.27-.17l-.75.04c.03-.12,1.58-.29,1.59-.11l.24-.23.05.15s.18-.09.23-.1c2.31-.67.61-.86,2.18-1.39v-.31c0-.18.38-.13.6-.54l1.27-.11s.19.05.23.06c.05.01-.07.19-.12.17-.58-.17-1.42.11-1.49.25-.08.15-.15.47-.17.62l.28-.04h.06c.69-.1-1.47.48-.99.46,1.02.09,1.91-.36,2.61.48l.11.13s0,.1-.03.11-.14,0-.16.01l-.79.5c-.43,0-.76,0-1.14.15l-.38-.46-.51.47Z"/>
        <path d="M25.04,16.64c.64.28,1.24-.63,1.54-.85.04-.03.09.13.05.17-.25.27-.74.74-1.05.99-.2.17-.33.27-.47.5-.28-.32-.73-.55-1.12-.68.71-.2.78-1.35.85-1.37l.31-.09c.22-.9.53-1.48.87-2.59.06-.21,0-.53.17-.61l-.05.81c1.11.08-.28,1.79-.29,2.5l.6-.56c-.06.75-.56.81-.78,1.43l-.13-.17s-.23.02-.26.07l-.25.45Z"/>
        <path d="M23.54,15.29c.03.2-.39.4-.56.56-.67.61-1.36,1.07-2.36.99l1.36-1.26c.17-.16.33-.37.47-.56.48-.21,1.78-2.71,1.86-3.3.12.64-.03,1.26-.32,1.82l-.43.82.17.11s0,.15-.04.14l-.23-.13-.82,1.18.5-.33.13.13s.05,0,.05-.03v-.15s0-.22,0-.22c0-.04.18-.06.19-.02l.03.25Z"/>
        <path d="M1.24,20.8l-.04-.97s.2-.03.19.01l-.06.27c-.06.27.47,1.53.82,1.59-.24-1.19.05-2.77.52-3.68.23-.45,1-1.81,1.48-1.87l-.24.62c-.08.2-.36.45-.54.6-.06.1-.16.37-.24.47-1.07,1.38-1.06,3.01-.66,4.7-1,.13-1.78-.98-1.97-1.83.12-.27.5-.11.75.1Z"/>
        <path d="M4.68,20.56l.49-.09c-.32.2-.55.36-.85.63l-.28-.45.25.73c-.02.08-.17.28-.24.34-.06.05-.16-.14-.19-.23l-.08-.21s.14-.06.15-.07c-.07-.31.03-.56.22-.72-.97-.66.26-3.14.94-3.67l.21-.39-.5-.28c.39,0,.61.03,1.02.07-.57.87-.65,1.68-.86,2.73l-.18-.82.3-.94c-.4.42-1.16,2.06-1.04,2.55.41.1.91-.19,1.02-.44.02-.05-.11-.23-.07-.26l.16-.15.1,1.24-.23-.54-.12.4c-.07.16-.17.42-.21.57Z"/>
        <path d="M7.64,7.74l-.15.28c-.03.07-.29,0-.26-.02l.26-.77.62-.65c.4-.15.78-.35,1.12-.64l.55-.47c-.07.52-.49.69-.84.96l-.12.89c-.29.02-.64.07-.74.26-.13.24-.04.5.1.82l-.5-.24-.04-.42Z"/>
        <path d="M17.79.35h-.82c-1.03,0-2.01.63-2.67,1.43l-.85,1.05c.7-1.86,1.27-1.74,2.53-2.53.72-.45,2.02-.4,2.24.15.09.22.42.56,0,.91,0,0,.02-.25.04-.4l-.37-.27-.12.16s-.13-.04-.13-.07c0-.06.04-.2.1-.22l.24-.05s-.12-.16-.18-.16Z"/>
        <path d="M2.75,26.1l-.79.56c-.25.18-.64.21-.89.05,1.16.07,1.51-1.24,1.8-1.82l-.24-1.76c.41.19.62,2.07.25,2.39,0,.02.17.05.18,0,.02-.08.1-.2.2-.25l-.43.95c.04.21.01.15-.08-.13Z"/>
        <path d="M16.04,4.14l.25.21s-.03.14-.06.18c-.04.06-.18-.08-.22-.14l-.75-1.14c-.08-.13-.22-.33-.18-.38.19-.07.34-.14.49-.25.36.75.69.8,1.18,1.58l-.72-.04Z"/>
        <path d="M18.01,4.51c-1.01-.21-.61-.98-1.02-.45-.29-.31-.6-.68-.84-1.09l.58.39-.3-.6c.18.11.43.24.54.34l1.18,1.03c-.11.04-.17.05-.17.08l.03.28Z"/>
        <path d="M30.62,11.32c-.14.44-.28.91-.53,1.38.02-.67.11-1.21-.15-1.69.4-.4.76-.84,1.02-1.38l-.02.57c-.17.28-.41.63-.17.89l-.26.02s-.09.08-.07.09l.17.11Z"/>
        <path d="M31.63,14.15l.5-.89.73-1.39c-.15,1-.84,2.47-1.55,3.38-.19-.42.13-.75.32-1.1Z"/>
        <path d="M19.53,15.53c-.39-.07-.62-.11-.86-.1-.06-.19.08-.64-.26-.77.06.26.14.51.11.65l-.1-.24s-.1-.05-.16-.05c.09.23.15.5-.07.7l-.11-.84c-.01-.09.06-.32.07-.4l-.07-.64c.3.17.34.34.31.69l.33-.17c.05-.03.14.11.18.15l.15-.67c.18.34-.02,1.32-.3,1.11.04.03.09.21.14.19.07-.03.07-.05.29,0-.23-.42.44-1.05.73-.9.1.05.09.28.02.42l-.4.85Z"/>
        <path d="M32.79,18l-.8.31c-.34.13-.65.24-1.02.14l.72-.39c.4-.37,1.86-.9,2.23-.59l-1.41.37.29.16Z"/>
        <path d="M32.15,17.55c-.38.35-1.08.63-1.77.5.65-.22,1.21-.39,1.7-.88l1.06-1.06-.99,1.44Z"/>
        <path d="M41.01,8.55l.49.29-1.44-.25s-.2.03-.22,0l-.09-.18h-.57c0-.17.02-.28-.05-.26l-.34.09-.78.19s.07-.19.04-.22l-.27-.25c.8-.03,1.56,0,2.43.08l-.21.21,1.25.19-.39-.32c.27.03.49.08.71.13-.03.12-.04.26-.09.26l-.47.06Z"/>
        <path d="M37.77,22.46c-.11-.09,0,0,.13.1-.02.01-.26.06-.28,0s-.09-.27-.07-.22l.8-.23c.87.03.56-.55,1.09-.36.05.02.08-.05.2-.18,0,0,.03.23.05.36-.19,0-.38.07-.53.22l-.72.7.1-.32c.02-.08-.13-.22-.21-.2-.16.04-.36.09-.56.13Z"/>
        <path d="M32.47,19.05c-.23-.4-.6-.04-.7-.24l-.11-.22.52-.09c.7.27,1.68-.31,2.45-.29-.4.35-2.31.55-2.16.83Z"/>
        <path d="M38.25,23.14c1.04-.51.44-.64,1.78-1.17l.03.45c-.96.19-.26.65-1.81.72Z"/>
        <path d="M.54,17.95c-.52,1.08-.03,1.73-.04,2.59-.45-.25-.29-.68-.32-1.05-.06-.99.17-2,.91-2.7l-.55,1.16Z"/>
        <path d="M43.32,17.93l-.28.05c-.06.01.12.19.14.22-.12.02-.37-.01-.39.07l-.06.44-.22-.41c-.18-.02-.44-.22-.51-.39l.76-.47-.19.22c-.05.06-.06.19-.07.3.45-.22.83-.26,1.27-.12l-.48.08Z"/>
        <path d="M7.79,10.41c-.93-.14-1.76-.44-2.62-.81l-1.49-.64c.48-.14.84.26,1.26.41l2.85,1.04Z"/>
        <path d="M15.8,9.8c-.11-.29-.24-.71-.24-1.04l.03-1.15c.11.19.67,1.92.21,2.19Z"/>
        <path d="M47.29,14.23s.14.12.13.14-.04.07-.09.15l-1.59-.74-.98-.46c.68-.11,1.14.28,1.64.51l.89.4Z"/>
        <path d="M.74,26.84c-.93-.13-.76-1.1-.68-1.95.31.29.17.6.17,1l.52.96Z"/>
        <path d="M43.67,12l-1.13-.31c-.36-.1-.75-.14-1.09-.37.69-.07,1.3.21,1.92.47l.19-.29.11.5Z"/>
        <path d="M35.66,7.07c-.54.23-.91.44-1.36.55.78-.6,1.52-.75,2.28-.57l-.36.36s-.03-.24-.11-.25l-.45-.08Z"/>
        <path d="M7.86,14.91c-.11.02-.26.04-.32,0-.07-.04-.13-.18-.18-.32.35-.05.68-.06,1.01-.04l1.07.06-1.58.3Z"/>
        <path d="M14.56,2.13l.53-.11c.27-.05.57-.37.87-.5-.31.43-.99,1.09-1.51,1.02l.24-.2s-.01-.05-.14-.21Z"/>
        <path d="M49.29,7.65c-.73-.34-1.35-.2-2.05.26-.18-.87,2.33-.71,2.05-.26Z"/>
        <path d="M53.77,13.4c.33-.75-.24-2.26.04-2.28.04,0,.15,0,.14.03s-.07.17-.07.21l.12,1.02c.05.4.2.83-.23,1.01Z"/>
        <path d="M30.06,5.05l-.16-.57-.25,1.06c-.21-.9-.05-.9.23-1.8l-.05.62.47.43-.25.26Z"/>
        <path d="M12.22,8.56c.09,1.12.21.87.22,1.67-.28-.82-.55-1.65-.29-2.56l.07.88Z"/>
        <path d="M27.69,6.42l-.17-.86c-.06-.3-.17-.56.09-.8l.09.37c.1.41.13.79,0,1.3Z"/>
        <path d="M20.39,1.22c-.59.39-.13.4-.51.82-.06.07-.35-.07-.32-.16l.17-.57.66-.1Z"/>
        <path d="M40.69,22.19l-.52-.19s-.11-.11-.11-.15c0-.03.02-.07.05-.06.75.16.08-.25.95-.12l-.37.53Z"/>
        <path d="M53.81,10.83l-.89-1.27c.52-.06,1.04.86.89,1.27Z"/>
        <path d="M17.73,14.02c-.19-.16-.16-.37-.21-.58-.13-.54-.36-1.02-.33-1.53.31.72.46,1.41.54,2.11Z"/>
        <path d="M20.73,15.84c-.14-.28.14-.34.23-.5.24-.38.44-.73.79-1.04-.02.36-.74,1.29-1.02,1.54Z"/>
        <path d="M28.12.97c-.22.15-.42.33-.67.54.02-.51.85-.88,1.38-1.05l-.71.51Z"/>
        <path d="M23.21,4.01l-1.28-1.15c.52.26.88.6,1.28,1.15Z"/>
        <path d="M2.16,28.31c.06.09.15.18.12.2l-.17.16c-.18-.59-.52-1.22-.21-1.87.08.56-.06,1.07.25,1.51Z"/>
        <path d="M6.54,4.46c-.09-.22-.06-.47.08-.64l.47-.58c0,.23-.06.46-.17.63l-.38.59Z"/>
      </g>
    </g>
    <path d="M51.28,65.5c-.04.22-.12.47-.25.57-.2.14-.49.19-.71.13-.09-.02-.2-.02-.19-.05.06-.45.64-.09.93-.71.14-.3.32-.46.67-.32l-.45.38Z"/>
  </g>
</svg>