<?xml version="1.0" encoding="UTF-8"?>
<svg id="_Слой_1" data-name="Слой 1" xmlns="http://www.w3.org/2000/svg" xmlns:xlink="http://www.w3.org/1999/xlink" viewBox="0 0 60.59 108.19">
  <defs>
    <style>
      .cls-1 {
        clip-rule: evenodd;
        fill: none;
      }

      .cls-2 {
        clip-path: url(#clippath);
      }
    </style>
    <clipPath id="clippath">
      <path class="cls-1" d="M60.33,92.12V15.99C59.56,14.76,49.17-.17,30.01-.15,10.88-.15.51,15.16-.27,16.39v76.13c.53.96,11.23,15.5,30.72,15.52,19.56.02,29.32-14.99,29.87-15.92h0Z"/>
    </clipPath>
  </defs>
  <g class="cls-2">
    <g>
      <path d="M60.06,92.12c1.11,2.01,1.81,1.86,3.09,3.64-.4.15-.94.19-1.2-.08l-2.09-2.15c-.24-.25-.54-.84-.74-1.17l-1.16-1.87c-1.53-2.47-3.25-4.7-5.3-6.63l-3.25-3.07c-1.84-1.74-2.17-1.19-3.99-1-1.54.17-2.58,1.75-2.17,3.56.13.57.41,1.13.61,1.81-1.13-1-2.21-1.64-3.54-1.24-.53.16-.51.61-.89,1.34l-.21-2.22c-.11-1.15-.31-2.32-.75-3.36l-.75-1.76c-.31,2.21-.54,4.43-.33,6.67.07.75.56,1.44.07,2.23,1.21.35,2.52.39,2.87,1.99.18.81-.04,1.43-.52,2.08l.08.46c.02.09-.39.08-.46,0-.34-.42-1.18-.43-1.73-.41l-3.65.12-4.26.18-1.76.13c-.55.04-1.02.05-1.52-.1.46-.07.88-.16,1.28-.18l2.58-.11,4.64-.29c.46-.03.99-.18,1.41-.35-.02-.59-.16-1.34.23-1.64.59-.47,1.31-.51,2.08-.75-.85-.41-1.71-.59-2.67-.57l-6.51.08-4.26.39c-1.93.18-3.78.04-5.75-.08,1.32-.45,2.57-.07,3.88-.2l3.63-.36,6.48-.23c-.05-.87-.07-1.62.14-2.3l.66-.69c-5.1-.06-10.06-.62-15.17-1.18-1.86-.2-3.7.03-5.49.3-1.26.19-2.38.28-3.65.07-1.06-.18-2.22-.18-3.05-1.14-.32-.5-.63-1.24-.9-1.84-.57-1.26-.56-2.7-.72-4.1l-.3-2.59c-.04-.36-.34-.91-.44-1.31-.73-2.74-3.06-4.39-5.5-3.69-.26.07-.51.58-.49.83.02.28.15.72.36.99,2.43,3.17.19,2.15,1.48,5.21.46,1.08.31,2.63-.12,3.67-1.07,2.61-1.61,1.96-1.56,5.16.03,1.65-.01,3.14-.23,4.73-.11.79-.03,1.46.14,2.29-.27.07-.77.07-1-.03l-.62-1.5c-1.47.08-2.04,1.48-3.09,1.49,1.5-1.22,2.67-1.89,2.77-4.34-1.56-.12-4.82,1.22-5.93,2.15l-1.3,1.09c-.27-.71.18-.83.52-1.1.89-.71,1.79-1.27,2.8-1.71l5.41-2.37c.33-2.02-.28-3.18,1.13-4.51.52-.49.68-1.38.91-2.1.25-.76.25-1.39.05-2.14l-.54-2.05c-.35-1.34,1.15-2-1.92-4.46-.16-.13-.22-.65-.15-.87.23-.74,2.32-.9,2.9-.83,1.4.16,2.85,1.02,3.66,2.37,1.25,2.09,1.29,4.49,1.49,6.88.1,1.2,1.65,4.71,2.99,4.87,1.46-.33,7-4.6,5.55-6.59.76,1.24,1.88,1.71,3.15,1.84s2.32.05,3.48-.45c1.24-.53,2.44-1.03,3.61-1.78l2.98-1.94c2.41-1.57,4.27-2.09,6.52-5.07.33-.44.6-.97.9-1.47,1.29-2.11,1-6,.56-8.48-.62-3.51,2.66-1.99,2.34-5.17-.16-1.59-.16-3.02-.04-4.62-1.21-.35-1.97-1.41-2.34-2.68-1.3-4.43,1.19-5.21-.69-6.66-.55-.42-.9-1.33-1.3-1.96-1.41-.43-2.54-1.6-2.71-3.38-.8.22-3.8.65-4.24-.35l1.75-.21c.32-.04.83-.42,1.12-.61-.88,0-1.44.1-2.24-.08.71-.72,1.35-.54,1.81-1.66l-2.24,1.21c-1.4.76-3,1.57-4.57,1.35l-2.15-.31c-.57-.08-1.17.29-1.7.34-1.07.09-1.95.21-2.83,1.01-1.22,1.11-1.43,1.21-2.29,2.75l-.84,1.49c.11-.76.49-1.33.8-1.97s.58-1.37,1.03-1.88c.98-1.15,2.19-2.35,3.46-2.99,1.06-.54,1.59.87,2.4.98l1.83-2.49,2.38-.57c.05-1.15-.73-1.61-1.54-2.11,1.19-.32,2.24.23,2.9,1.39l1.45-.84c.17-.1.42-.48.42-.68s-.15-.67-.29-.8l-1.23-1.2c1.16-.58,2.1.17,2.89.99.51.53.79,1.1.81,2.02.69.34,3.28.54,3.44-.81.14-1.18.14-3.79-.93-4.45.02.83.1,3.35-.98,3.27-.6-1.04-1.48-1.74-2.4-2.33-1.43-.92-2.92-1.38-4.53-.81-.43.15-.91.62-.93,1.1.69.69,1.43.24,2.21-.07-.62.75-2.51,1.99-3.41,2.04-.99.05-1.63-.7-2.36-1.45l-.9.72c.13,1.01.36,2.13-.04,3.05l-.72,1.62c.02.22.65.45.78.25l.5-1.82c.2-.74.51-1.34,1.07-1.79l-.68,2.24c-.2.67-.19,1.4-.26,2.21-.53-.03-1.1-.12-1.61-.28-1.46-.47-2.45.83-3.43,1.95-.78.9-2.02,2.3-2.2,3.54l-.35,2.3c.03.27.05.25.25-.04.03.42-.02.89-.46,1.27-.12-.72-.08-1.44.06-2.09l.76-3.51c-1.23.78-4.43,2.84-3.19,4.87l1.27,2.08c-.73-.15-1.13-.5-1.73-1.02l.52,2.23c.12.52-.18,1.28-.3,1.82,2.12.38,5.17,2.44,6.54,4.19.32.4.49,1.13.77,1.55.58.86.74,1.99.01,2.72l.12-.43c.03-.1-.15-.3-.25-.37-.98-.74-.3-1.19-1.76-2.79-1.1-1.21-2.44-2.04-3.86-2.66-.81-.35-3.25-.67-3.66.53-.24.71-.32,1.55-.34,2.36.8.26.54-.81,2.27-1.27,1.41-.38,3.14-.54,4.42.69.22.21.27.77.4,1.01.26.47.69.88.78,1.48-.62.16-1.13.27-1.73.11l1.04-.47c-.2-.59-.45-1.15-.92-1.17-.12.34-.26.87-.4,1.1-.2.32-.71.4-1.07.44-.88.11-1.42-.49-1.54-1.57-.1-.08-.76.43-.64.64.66,1.12,1.84,1.16,2.97,1.26-.12.26-.45.18-.71.23-.42.23-3.18.15-3.29-.33-.18-.23-.34-.44-.5-.57v-.32c-.01-.22-.77-.23-1.04-.99l-.37,5.53c-.16,2.43.33,5.01.94,7.3.31,1.18.4,2.45.84,3.6.26.69.66,1.34,1.01,2,.16.3.44.59.64.84l1.37,1.78c-.16-.05-.51-.28-.62-.42l-1.24-1.66c-.4-.53-.81-1.25-1.1-1.86-.34-.71-1.09-3.84-1.25-4.71l-.5-2.73c-.37-2.01-1.68-1.4-2.94-2.45l-.51-1.41c-1.72-.95-1.46-.38-2.83-2.14-.39-.5-.46-1.48-.48-2.12-.06-1.91-.75-.4-1.57-3.75-.15-.63-.44-1.2-.9-1.58-.49-.41-1.72-1.44-1.74-2.11-.02-.83.76-1.31.53-1.65l-.39-.58.2-.83c-.28-.39-.36-.84-.27-1.36-.82-.09-1.69-.19-2.3-.95-.23-.28.04-.79.18-1.08.45-.88.89-1.67,1.39-2.49l1.08-1.77c.4-.67.73-1.4,1.11-2.11.45-.87.7-1.88,1.06-2.83.48-1.29.77-2.64,1.09-4.01l.39-1.69c1.12-4.83-.1-5.66-.09-7.93,0-1.38.23-2.74,1.01-3.78.5-.67.76-1.53,1.62-1.91-.18.4-.5.73-.78,1.12-.31.44-.53,1.04-.8,1.55-.18.35-.46.75-.54,1.15-.32,1.75-.23,3.52.31,5.19.26.79.2,1.48.03,2.26l-.74,3.52c-.13.61-.3,1.19-.47,1.8-.36,1.31-.53,2.69-1.01,3.92-.34.88-.64,1.76-1.07,2.54-.36.66-.68,1.35-1.08,1.94l-1.12,1.66c-.54.81-1.24,1.81-1.17,2.94.8.84,2.13.57,3.06.1s1.52-1.1,2.03-2.06c.67-1.28-.02-2.73,2.73-7.54l1.12-1.95c.46-.81.84-1.79,1.13-2.69l-.37-1.33c.61.09.94.31,1.44.49,1.82.66,6.8,2.05,8.59,1.96l4.54-.24c1.08-.06,1.9-.95,1.78-2.2-.3-.32-1.06-.49-1.45-.16-.34.28-.44.93-.58,1.45-.38-.32-.37-1.01-.23-1.66-1.25-.06-2.5-.11-3.72-.46l-3.82-1.11c-.49-.14-1-.23-1.37-.67l5.82,1.59c1.19.33,2.43.17,3.65.32,1.42.18,2.78.09,4.18-.29.42-.11.7-.49.81-.92s-.06-1.02-.46-1.18c-.94-.38-1.64.42-2.12,1.32,0-.42.13-.79.31-1.27-.12-.16-.5-.31-.82-.37-3.28-.62-6.55-1.64-9.41-3.46,1.89.71,3.49,1.46,5.3,2.01,2.23.69,4.36,1.16,6.66,1.44.47.06,1.22.05,1.23-.63l-1.29-1.66c-.35-.45-1,.36-1.06.89-.18-.46-.04-1.02.26-1.56l-4.46-1.61c-2.19-.79-3.78-1.99-5.54-3.65.58.16,1.05.57,1.57.85.1-.1.39-.48.55-.5l1.93-.28.66-.55c.69.96.32,1.59,1.37,2.63.9.89,2.92,2.03,3.17.93.04-.19-.08-.57-.2-.72l-.99-1.24c-.49-.62-1.57-2.56-1.83-3.57.47,0,.8,0,1.18.03l3.64.41.63-.46h5.89c.29.21.63.66.95.78,3.01,1.2,2.53-.12,5.34.81l8-.75,6.4-.21c2.94-.1,8.74.5,10.98,2.89.65.7,1.07,1.51,1.26,2.5.12.63.46,1.34.54,1.96l.9,6.84.3,1.36,1.08,7.96c.68,5.02.42,10.12-.04,15.19l-1.03,11.25c-.3,3.24-.91,6.17-.76,9.47s-.14,6.81-.55,10.14c-.18,1.43-.34,2.85,0,4.23.41,1.68.73,3.34,1.23,4.97l1.18,3.85c.34,1.1.46,2.13.61,3.39l-1.21-.02c-.07-1.32-.22-2.43-.55-3.62l-1.25-4.51c-.43-1.55-.72-3.13-1.12-4.68-.32-1.21-.22-2.34,0-3.57.39-2.17.53-4.42.56-6.71.05-3.74.23-7.32.56-11l1.25-13.85c.5-5.51.78-9.64,0-15.15l-1.27-9.09-.85-6.3c-.1-.77-.85-2.87-1.38-3.62-.74-1.04-1.61-1.65-2.75-1.97-4.76-1.36-11.22-.9-16.18-.58-1.54.1-2.91.2-4.44.4l.44.79c.31.9.65,1.69,1.11,2.53.23.41.32,1.21.63,1.56,1.78,2.02,3.75,1.76,5.48,2.81l1.32.81c.77.47,1.53.92,2.39,1.13l2.69.64c.17.66-.24,1.16-.23,1.74l.17,10.03c.03,1.54-.53,3.09-.9,4.57l-.58,2.3-2.53-1.37c-1.4-.76-2.18-3.6-2.74-4.51-.34-.55-.63-1-1-1.54.25.89.5,1.65.83,2.44l.61,1.45c.3.72.64,1.32,1.26,1.76,1.09.77,2.31,1.44,3.48,2.05,0,.1-.07.41-.13.55-1.46-.73-2.83-1.6-3.99-2.9-1.84-2.06-1.91-5.83-4.08-6.32l.85.85c.32.32.54.9.78,1.38,1.62,3.22-1.6,3.26,6.44,7.24-.13.89-.28,1.77-.47,2.66-.34,1.59-.34,3.21-.44,4.95-.35-.39-.42-.94-.5-1.53l-.23-1.69c-.18-1.32-.61-2.2-1.44-3.06-.58-.6-1.21-1.42-2.16-1.11-.76.25-1.35,1.01-1.97,1.55l-1.4,1.21c-1.27,1.09-2.76,1.29-3.96,0-.01,1.18.99,2.38,1.76,2.41.47.02.82-.28,1.35-.59-.5,1.12-1.61,1.35-2.49.72-.78-.56-1.38-1.76-1.65-2.87-.09,1.41.56,2.84,1.66,3.59.91.62,2.14.79,2.85-.21.82-1.15,1.35-2.38,1.88-2.91.56-.57,1.16-1.33,1.98-1.36,1.18-.04,2.11,1.2,2.21,2.5.17,2-.19,3.25,1.13,4.28v-1.07c.88.4,1.32,1.64,1.17,2.64-1.9.29-.76,2.16-1.03,3.92-.47-1.03-.69-2.04-1.78-2.18.32.55.62,1,.97,1.52.4.6.58,1.49.89,2.18.22.51.31,1.06-.1,1.41l-.56-.5.18,3.1s-.18.28-.18.28c0,0-.04-.07-.09-.17l-.32-2c-.16-1.03-.51-2.08-1.51-2.39-.4.67-.73,1.49-.73,2.37,0,.67.32,1.7.78,2.08l1.34,1.13c.49.41,1.94,2.26,1.76,3.17l-.6-.91c-1.87-2.82-3.94-2.16-4.27-5.8.5-1.76,1.14-2.17,1.56-3.88.26-1.08.42-2.22.4-3.41-.21.48-.29.93-.34,1.48-.11,1.31-.53,2.48-.99,3.65-.28.72-.46,1.59-1.25,1.6-.52-1.71,1.42-2.57,1.35-3.64-.04-.66-.35-1.28-.54-1.88-.4-1.25,1.16-1.07,1.4-1.9-.38.19-.68.32-.93.48l-2.56,1.63c.76.27,2.27,1.18,1.7,2.07-.48.76-.98,1.46-1.4,2.3-.2.4.08,1.23-.25,1.8-.05.09-.28-.21-.28-.34l-.09-1.31-1.01.54c-.13.07-.44.1-.55.03s-.16-.51-.11-.65c.6-1.49,1.59-1.5,2.66-2.52-.19-.16-.49-.22-.61-.12l-.78.65c-.32.26-.61.4-1,.32s-.55-.58-.74-1.13l-.5,3.62c-.16,1.19-.51,2.02.22,3.16.53.83,1.18,1.06,2.03.67,1.86-.86,2.3-3.51,2.42-2.9.17.82-.55.72-.04,1.88.31.71.65,1.3,1.22,1.72l1.61,1.15c1.14.81,1.89,2.23,1.53,3.84-.07.29-.1.24-.16-.02.17-1.15-.14-2-.9-2.63-.6-.49-1.17-.92-2.05-1.15l1.09,1c.94.85,1.52,2.49,1.12,4.01-.26.99-.76,1.54-1.48,2.08l-2.88,2.18c-.64.48-1.23,1.27-.84,2.18.09-.48.19-1.04.49-1.38.96-1.07,2.09-1.89,3.38-2.22.02,1.38.5,2.7,1.4,3.54.32.3.62.88.91,1.24l.87,1.04c.88,1.06,1.81,2.05,2.79,2.98l1.21,1.15c.57.55,1.06,1.2,1.61,1.87l.23.06c-.62-2.02-1.69-3.77-1.91-5.78-.25-2.24-.45-4.6-.06-6.85l.24-1.43c.08-.46.19-.92.49-1.13l.56,1.67,1.02,3.96c.44,1.71.55,3.64,1.03,5.33l.19.67c.66,2.33-.27,3.52,2.27,8.11l1.17,2.12.92,1.67ZM20.44,13.05c.14-1.18.29-1.86,1.12-2.31-.36-.41-1.02-.45-1.44-.25-.34.17-.86.75-.61,1.33.19.45.63.91.92,1.22ZM28.46,11.75c-.67-.96-1.84-1.72-2.66-.93l.25.92h2.42ZM36.04,15.32c.41-.67.23-1.32-.03-1.84-.83-1.65-2.54-2.29-3.94-1.4.88.01,1.62-.05,2.26.26,1.12.54,1.63,1.63,1.71,2.98ZM24.68,12.59l-.59-.75c-.56.65-.58,1.6-.4,2.33.34-.64.64-1.12.99-1.57ZM16.17,13.9c.13-.08.4-.54.49-.66-.35-.68-.99-1.09-1.73-.86-.28.09-.6.76-.47,1.05.43.38,1.26.75,1.7.47ZM29.56,17.16c-.24.91-.88.83-1.3,1.38,1.61.26,3.56-1.72,4.61-3.08-.45-.13-.73-.14-1.25-.17.29-.81.61-1.44.77-2.38-1.53.96-3.72,4.36-5.53,2.67l.12.49c.02.1.09.44.01.42l-.41-.09c.4,1.21,1.99,1.08,2.99.76ZM25.15,17.43c-.06-.87-.02-1.56.54-2.22l.15.7.71-2.37c-.82.32-1.26,1.09-1.74,1.83-.46.69-.69,1.29-.61,2.36l-.96-.66c.58.81,1.21,1.3,2.01,1.73l-.09-1.37ZM39.37,18.76c-1.5-1.51-3.44-.71-4.6.55-.9,1.4-1.04,3.27-.38,4.78.62-3.39,2.2-4.95,4.99-5.33ZM44.18,23.1l-.56-1.72c.95.8,1.04,2.05.95,3.46,1.07-1.64.54-3.79-.92-4.81-.58-.41-2.48-1.06-3.09-.6,2.02.99,1.33.53,2.44,2.09.73,1.03.59,2.25.47,3.58.29-.56.63-1.27.71-2ZM50.1,33.1c.35-.85-.13-7.75-.18-8.03l-.28-1.48c-.29-1.53-1.46-1-1.43-1.1l-.19.65-.58-.64c-.49-.54-.91-1.02-1.57-1.32.1,3.56.94,1.87,1.56,4.39-.62-.21-2.39-.76-2.65.06,1.36-.05,2.55.24,3.44,1.35l.5,2.01.73,2.79c.14.52.3.93.65,1.33ZM37.85,21.84c-.51-.62-1.18-.41-1.73.02s-.77,1.28-.77,1.96c.7-1.02,1.53-1.5,2.49-1.98ZM30.68,24.03c-1.27-1.89-3.24-2.58-5.15-1.94,2.69.28,2.74.61,5.15,1.94ZM38.23,28.92l1.91-.55v-.43c0-.09.21-.19.28-.26.62-.72,1.29-1.01,2.18-1.34-.59-.19-1.16.07-1.66.41.18-.45.58-.63,1.03-.77-.84-.38-1.52.24-2.2.6.37-.39.65-.85.52-1.4-.1-.43-.43-.98-.82-1.08-.03,1.29-.33,2.37-1.28,2.93.12-.41.29-.85.19-1.06-.68-1.47-2.64.41-3.28,1.18-.53.63-.81,1.39-.4,2.16l-.47.13c.15.23.28.35.26.47l-.06.53c1.5-.64,2.1-.98,3.7-.72l.1-.81ZM5.38,33.52c.52,1.35,1.64,1.57,2.56,1.51s2.24-1.18,2.05-2.1c-.77.9-1.94,1.69-2.79.66-.33-.4-.51-1.16-.42-1.7.38,1.01,1.17,1.82,2.04,1.35-.28-.32-.72-.66-.64-1.01.1-.38.55-.71.76-.76l-.03.61c0,.11.32.19.38.1.42-.61.17-.98.46-.76.61.46.96,1.64.79,2.44-.2.91-.56,1.59-1.37,2.06-1.46.84-1.92-.36-2.77.49s-.71,1.81-.2,2.81l.97,1.92c.41.82.74,1.84.38,2.77-.47,1.23-1.59,1.65-2.68,1.47-.99-.17-2-.17-2.85.39-.97.65-1.53,1.77-1.41,3.06.1,1.08.8,2.13,1.85,2.42-.72-1.27-.43-2.56.38-3.53.4-.48.79-.87,1.37-1.01l2.58-.63c.62-.15,1.28-.68,1.65-1.27.77-1.22.43-2.74-.31-3.88-.4-.61-.83-1.49-.91-2.26-.05-.54.33-1.71.74-1.94l1.99-1.08,1.19-1.16c.34-.33.73-1,.91-1.46.37-.93.05-1.87-.04-2.89l1.83,1.26c.96.67,2.41.15,3.01-1,.33-.63.34-1.9-.01-2.46-.82-1.29-2.17-1.34-3.39-1.04-1.65.41-3.19.9-4.59,2.13.07-.79.63-1.37.38-2.04-.45-1.18-1.77-1.44-2.75-1.01.26.83.35,1.78-.23,2.47l.12-1.09c-.27-.4-.92-.6-1.41-.51-.35.07-.89.63-.98,1.01l.55,1.03-.57-.31c.44.78.4,1.85-.29,2.27-.03-.59-.11-1.06-.41-1.45-.04.34-.03.79-.12,1.01-.31.8-1.31.91-1.94.3-.39.65-.7,1.61-.49,2.31.41.34.77.69.66,1.38-.03.17-.17.55-.31.58-.66.13-.84-.18-.99.14-.39.82,1.18,1.36,1.73,1.42l-.94.49c-.08.58-.02,1.4-.34,1.79l-1.01,1.22c-.29.35-.37.85-.6,1.25l-.8,1.42c-.15.26-.17.74-.07,1l1.05-2.03c.99-.44-.76,1.65-.47,2.84.95-1.23,2.09-1.89,3.46-1.68l1.31.2c.24.04.68-.16.83-.35.74-.92-.12-2.21-.51-2.92-.27-.48-.11-1.26-.1-1.89-1.42,1.39.87,2.64-.66,3.55,1.02-2.01-1.61-1.82-.03-4.06-.38-.55-.86-1.26-.32-1.98.21.87.65,1.46,1.33,1.34-1.03-.69-1.01-2.52-.28-3.45-.03.88.02,1.43.5,1.87.45.42,1.06.47,1.6.28-.35-.7-.49-1.33-.36-1.91ZM47.2,26.85c.27-.94-2.46-.99-2.55-.36.98.02,1.71.04,2.55.36ZM49.34,36.2c.67-1.84.22-4.12-1.3-5.32s-3.36-2.16-5.25-2.84c1.4,1.19,2.9,1.87,4.07,3.26l.94,1.12c.71.85,1.42,2.57,1.55,3.78ZM32.93,36.23c-.18-.21-.57-.57-.65-.83l-.56-1.82c-.09-.03-.51.13-.46.29l.19.6c.27.84.63,1.71,1.48,1.76ZM38.12,43.99c.56.06,1.11-.4,1.47-.74,1.08-1,2.12-1.87,3.48-2.57l-1.52-.35c-.38-.09-1.02-.95-.93-1.42.15-.63.45-1.2.74-1.74.39-.73.41-1.82-.27-2.36-1-.79-2.21-.85-3.4-.9-.73-.03-1.43-.19-2.01.48-.14.16-.25.63-.18.83s.43.47.63.51l2.07.37c.78.14,1.57.72,1.75,1.59.1.48.11.98-.09,1.29-.58.91-1.61.09-2.23.42-.17.07-.21.72-.15.93.14.52-.34.64-.52.93-.55.88.06,2.61,1.16,2.73ZM-1.36,39.49l.74-.84c.08-.09.03-.52-.08-.59-.44-.29-1.18.51-1.34,1.12-.08.31.5.51.68.31ZM6.3,44.2c.66-.85.15-1.68-.32-2.25s-.84-1.07-1.35-1.55c.15.48.34.75.56,1.11.62,1.05.55,2.59-.43,3.29.44.03,1.2-.15,1.54-.6ZM-2.36,44.77c-.05-1.09.03-1.73.19-2.65-.82.59-.62,1.9-.19,2.65ZM-3.47,44.9l-.42-1.78c-.18.2-.34.8-.23,1.11.08.24.36.45.65.66ZM1.03,44.74c.81-.56,1.8-.72,2.68-.97-1.66-.92-3.34-.44-4.54,1.07s-1.12,3.81.22,5.32c.29.33.69.6,1.04.47-1.69-1.33-1.06-4.74.59-5.88ZM42.87,48.71c.82-.25,1.58.04,2.34.31,0-.49.01-1.04-.08-1.53s-.77-.79-1.17-.67c-2.08.6-2.51,2.45-4.89,2.75.3.07.71.07,1.05-.03l2.76-.83ZM4.3,54.38l-.57-1.56c-.42-1.15.57-3.39,1.09-4.07l.73-.96c-.98-.38-2.76,2.4-2.52,3.35l.44.77-.69-.11c.09,1.12.64,2.07,1.51,2.57ZM4.85,52.47l1.55-1.17.23-3.07c-.68.07-1.02.81-1.44,1.38-.47.65-.96,1.32-.92,2.17.4-.7.81-1.22,1.47-1.54-.3.74-.77,1.24-.9,2.22ZM13.28,49.62c-.51-.73-1.21-1-1.93-.91l1.93.91ZM41.07,51.28l-1.27-.17c-.58-.08-1.05-.38-1.64-.77.05,1.09.95,1.84,1.83,1.53.39-.14.72-.34,1.08-.59ZM2.42,53.3c-1.01-1.22-.42-2.36-2.32-2.11.35.78,2.24,3.49,3.24,3.23l-.92-1.12ZM6.32,53.7c-.37-.56-.77-.57-1.25-.45-.24.06-.59.37-.59.65,0,.21.15.64.21.76.57-.57.94-.74,1.63-.96ZM4.36,56.48l-.86-.99c-.21.96.25,1.8,1.05,2.06l1.29.42c.19-1.1-.8-.71-1.48-1.49ZM45.44,69.3c.66-1.47-.55-3.75-1.07-4.12l-2.21-1.56c-.48-.34-.74-.85-1.03-1.52-.34,1.39,1.22,2.7,2.04,3.45.37.34.73.91.99,1.39.63,1.17.38,2.46.19,3.76.4-.41.84-.86,1.08-1.4ZM41.98,71.85c1.56-.91,2.1-3.36,1.05-5-.46-.72-1.05-1.2-1.56-1.84-.43-.54-.66-1.42-.97-2.05l-.2-.41c-.24-.49-.92,1.34.6,2.68,1,.89,2.01,2.1,2.18,3.55.14,1.21-.59,1.99-1.09,3.07ZM25.73,78.17c2.32-.72,5.23-.94,7.09,1.11,1.33,1.46,1.33,3.72,2.55,3.51-.01-1.79.16-3.47.67-5.11l1.13-3.63c1.09-3.5,1.03-6.12.35-9.99l-1.28,3.27c-.19.47-.74.94-1.06,1.33-2.92,2.55-.92,2.8-3,4.71-.9.82-2,1.16-3.14,1.43-1.75.43-3.41.98-5.12,1.58-.71.25-1.49.61-2.02,1.11-.16.15-.21.78-.1.95.49.77,3.12,0,3.94-.26ZM36.74,86.09c.07-.27,0-.73-.11-1.05-.43-1.17-1.45-.75-2.35-.56l-.03,2.32c.74.41,2.3.08,2.5-.71ZM39.59,89.89c-.05.12-.03-1.35-.68-1.4-.8-.06-1.47.17-2.17.59l.15,1.48c.78.21,2.37.18,2.71-.67Z"/>
      <path d="M42.39,89.09l.1,2.33-.93-.03-.36-5.66c1.07-.08,1.15,2.55,1.18,3.36Z"/>
      <path d="M12.1,72.38l1.07,1.7c.06.58-2.2-2.95-1.94-2.81.32.35.62.7.87,1.1Z"/>
      <path d="M23.29,68.06c-2.19,2.14-4.15,2.69-7.01,2.72-.76,0-1.43-.61-1.97-1.14-1.7-1.65-.64-1.99-1.86-3.08.32-.89,1.32-1.73,2.11-2.19,1.76-1.02,1.85.75,2.98.18,2-1.02,5,1.13,6.46,2.75-.11.33-.45.51-.71.76ZM17.49,67.26c0-.27.02-.58-.07-.61-.41-.16-1.3-.45-1.55.26l1.63.35ZM20.11,67.16c-.4-.54-1.88-.88-2.31-.16-.28.47,2.08.22,2.31.16ZM15.64,68.53l-.52.43c.13-.47-.24-1.31-.66-1.03s.63,1.57.93,1.3c.11-.1.18-.4.25-.7ZM18.06,68.88c-.17.04-.49.33-.63.5l-.3-.57c-.14.38-.15.75-.07,1.12,1.12.12,2.16-.25,3.16-.92-.66-.72-1.24.58-2.17-.13Z"/>
      <path d="M25.12,52.81c1.06-.34,2.26-.01,3.14-.94.28-.3-.42-1.04-.69-.84-.51,1.06-1.74,1.6-2.67,1.06-.51-.3-.66-.75-.69-1.46l-1,.65c-.11.07-.25.5-.16.58l.46.4-1.32-.2,1.24-1.72.95-.76,2.41-.32c-.85-.49-1.72-.43-2.68-.55,1.64-.76,3.34-.43,4.9.52.38.23.91.28,1.41.45l-.38.25,1.26.52-.5.24,1.02.62c-.84.34-1.45.54-2.23.75l.07.61-1.72.21-1.7.1-1.12-.15ZM26.62,51.59c-.54.13-.97.24-1.28.11-.23-.09-.4-.5-.63-.86-.11.33,0,.81.25.98.58.4,1.55.12,1.66-.23Z"/>
      <path d="M34.05,47.61c-2.76-1.83-6.19-1.7-9.06-.24-.74.37-1.42.57-2.18.88-.38.16-1.15.38-1.38-.09-.22-.95.48-1.71,1.2-2.04,2.79-1.28,6.53-.91,9.46-.17.92.23,3.28,1.72,3.53,2.71l-1.57-1.05Z"/>
      <path d="M19.93,61.34c-.46.8-1,.02-2.39.4.38-.4,2.07-1.69,2.39-.4Z"/>
      <path d="M15.68,61.45c-.46.03-1.22-.36-1.23-1.13.05-.35.49-.88.73-1.17l-.15,1.26c-.03.27.34.63.64,1.04Z"/>
      <ellipse cx="13.53" cy="63.52" rx=".41" ry=".48"/>
    </g>
  </g>
</svg>